<svg xmlns="http://www.w3.org/2000/svg" xmlns:xlink="http://www.w3.org/1999/xlink" width="1080" zoomAndPan="magnify" viewBox="0 0 810 809.999993" height="1080" preserveAspectRatio="xMidYMid meet" version="1.0"><defs><g/></defs><path fill="#ffffff" d="M 625.824219 59 L 184.167969 59 C 159.785156 59 140 78.765625 140 103.164062 L 140 544.824219 C 140 569.226562 159.785156 588.992188 184.167969 588.992188 L 625.824219 588.992188 C 650.207031 588.992188 669.992188 569.226562 669.992188 544.824219 L 669.992188 103.164062 C 669.992188 78.765625 650.207031 59 625.824219 59 Z M 533.363281 431.164062 L 533.363281 431.210938 C 528.949219 441.851562 521.949219 451.238281 512.980469 458.460938 C 503.707031 465.96875 491.957031 472.152344 477.496094 476.566406 C 463.050781 481.050781 445.871094 483.304688 425.976562 483.304688 L 283.9375 483.304688 L 283.9375 174.140625 L 434.144531 174.140625 C 461.925781 174.140625 484.1875 180.390625 500.835938 193.132812 C 517.621094 205.941406 525.964844 225.019531 525.964844 250.769531 C 525.964844 266.335938 522.167969 279.699219 514.527344 290.738281 C 506.929688 301.714844 495.976562 310.304688 481.84375 316.265625 L 481.84375 317.28125 C 500.703125 321.257812 515.300781 330.203125 524.90625 344.113281 C 534.511719 358.027344 539.4375 375.605469 539.4375 396.824219 C 539.4375 408.707031 537.140625 420.011719 532.8125 430.570312 Z M 533.363281 431.164062 " fill-opacity="1" fill-rule="nonzero"/><path fill="#ffffff" d="M 472.0625 355.023438 C 463.007812 346.742188 450.289062 342.699219 433.859375 342.699219 L 338.414062 342.699219 L 338.414062 439.160156 L 434.125 439.160156 C 450.464844 439.160156 463.273438 434.917969 472.328125 426.351562 C 481.382812 417.847656 486.019531 405.726562 486.019531 390.132812 C 485.863281 374.898438 481.382812 363.105469 472.328125 355.023438 Z M 472.0625 355.023438 " fill-opacity="1" fill-rule="nonzero"/><path fill="#ffffff" d="M 458.722656 292.683594 L 458.8125 292.683594 C 467.558594 285.261719 471.839844 274.640625 471.839844 260.792969 C 471.839844 245.246094 467.976562 234.207031 460.136719 227.890625 C 452.363281 221.597656 441.144531 218.328125 426.394531 218.328125 L 338.0625 218.328125 L 338.0625 303.636719 L 426.394531 303.636719 C 439.269531 303.636719 450.246094 299.882812 458.722656 292.683594 Z M 458.722656 292.683594 " fill-opacity="1" fill-rule="nonzero"/><g fill="#ffffff" fill-opacity="1"><g transform="translate(153.444005, 675.892498)"><g><path d="M 4.6875 -64.34375 L 24.640625 -64.34375 C 30.679688 -64.34375 35.492188 -63.054688 39.078125 -60.484375 C 42.660156 -57.910156 44.453125 -53.738281 44.453125 -47.96875 C 44.453125 -41.519531 41.773438 -36.914062 36.421875 -34.15625 C 45.578125 -32.550781 50.15625 -27.144531 50.15625 -17.9375 C 50.15625 -12.53125 48.28125 -8.1875 44.53125 -4.90625 C 40.789062 -1.632812 35.644531 0 29.09375 0 L 4.6875 0 Z M 19.34375 -39.15625 L 20.515625 -39.15625 C 23.785156 -39.15625 26.226562 -39.726562 27.84375 -40.875 C 29.457031 -42.019531 30.265625 -43.890625 30.265625 -46.484375 C 30.265625 -50.859375 27.015625 -53.046875 20.515625 -53.046875 L 19.34375 -53.046875 Z M 19.34375 -11.3125 L 23.953125 -11.3125 C 31.117188 -11.3125 34.703125 -13.703125 34.703125 -18.484375 C 34.703125 -21.347656 33.804688 -23.398438 32.015625 -24.640625 C 30.222656 -25.890625 27.535156 -26.515625 23.953125 -26.515625 L 19.34375 -26.515625 Z M 19.34375 -11.3125 "/></g></g></g><g fill="#ffffff" fill-opacity="1"><g transform="translate(205.392055, 675.892498)"><g><path d="M 1.796875 -32.21875 C 1.796875 -41.519531 4.96875 -49.394531 11.3125 -55.84375 C 17.65625 -62.289062 25.296875 -65.515625 34.234375 -65.515625 C 43.234375 -65.515625 50.878906 -62.300781 57.171875 -55.875 C 63.460938 -49.457031 66.609375 -41.570312 66.609375 -32.21875 C 66.609375 -22.800781 63.515625 -14.878906 57.328125 -8.453125 C 51.140625 -2.035156 43.441406 1.171875 34.234375 1.171875 C 24.828125 1.171875 17.066406 -2.007812 10.953125 -8.375 C 4.847656 -14.75 1.796875 -22.695312 1.796875 -32.21875 Z M 17.625 -32.21875 C 17.625 -28.832031 18.144531 -25.75 19.1875 -22.96875 C 20.226562 -20.1875 22.046875 -17.832031 24.640625 -15.90625 C 27.242188 -13.988281 30.441406 -13.03125 34.234375 -13.03125 C 39.703125 -13.03125 43.828125 -14.898438 46.609375 -18.640625 C 49.390625 -22.390625 50.78125 -26.914062 50.78125 -32.21875 C 50.78125 -37.46875 49.363281 -41.976562 46.53125 -45.75 C 43.695312 -49.519531 39.597656 -51.40625 34.234375 -51.40625 C 28.929688 -51.40625 24.835938 -49.519531 21.953125 -45.75 C 19.066406 -41.976562 17.625 -37.46875 17.625 -32.21875 Z M 17.625 -32.21875 "/></g></g></g><g fill="#ffffff" fill-opacity="1"><g transform="translate(273.798114, 675.892498)"><g><path d="M 1.796875 -32.21875 C 1.796875 -41.519531 4.96875 -49.394531 11.3125 -55.84375 C 17.65625 -62.289062 25.296875 -65.515625 34.234375 -65.515625 C 43.234375 -65.515625 50.878906 -62.300781 57.171875 -55.875 C 63.460938 -49.457031 66.609375 -41.570312 66.609375 -32.21875 C 66.609375 -22.800781 63.515625 -14.878906 57.328125 -8.453125 C 51.140625 -2.035156 43.441406 1.171875 34.234375 1.171875 C 24.828125 1.171875 17.066406 -2.007812 10.953125 -8.375 C 4.847656 -14.75 1.796875 -22.695312 1.796875 -32.21875 Z M 17.625 -32.21875 C 17.625 -28.832031 18.144531 -25.75 19.1875 -22.96875 C 20.226562 -20.1875 22.046875 -17.832031 24.640625 -15.90625 C 27.242188 -13.988281 30.441406 -13.03125 34.234375 -13.03125 C 39.703125 -13.03125 43.828125 -14.898438 46.609375 -18.640625 C 49.390625 -22.390625 50.78125 -26.914062 50.78125 -32.21875 C 50.78125 -37.46875 49.363281 -41.976562 46.53125 -45.75 C 43.695312 -49.519531 39.597656 -51.40625 34.234375 -51.40625 C 28.929688 -51.40625 24.835938 -49.519531 21.953125 -45.75 C 19.066406 -41.976562 17.625 -37.46875 17.625 -32.21875 Z M 17.625 -32.21875 "/></g></g></g><g fill="#ffffff" fill-opacity="1"><g transform="translate(342.204174, 675.892498)"><g><path d="M 0.625 -51.484375 L 0.625 -64.34375 L 45.859375 -64.34375 L 45.859375 -51.484375 L 30.578125 -51.484375 L 30.578125 0 L 15.90625 0 L 15.90625 -51.484375 Z M 0.625 -51.484375 "/></g></g></g><g fill="#ffffff" fill-opacity="1"><g transform="translate(388.692224, 675.892498)"><g><path d="M 28.390625 -65.515625 C 31.878906 -65.515625 35.285156 -65.007812 38.609375 -64 C 41.941406 -62.988281 44.410156 -61.988281 46.015625 -61 L 48.359375 -59.4375 L 42.4375 -47.734375 C 41.96875 -48.046875 41.316406 -48.445312 40.484375 -48.9375 C 39.648438 -49.4375 38.085938 -50.101562 35.796875 -50.9375 C 33.515625 -51.769531 31.382812 -52.1875 29.40625 -52.1875 C 26.957031 -52.1875 25.070312 -51.664062 23.75 -50.625 C 22.425781 -49.582031 21.765625 -48.175781 21.765625 -46.40625 C 21.765625 -45.519531 22.078125 -44.703125 22.703125 -43.953125 C 23.328125 -43.203125 24.390625 -42.394531 25.890625 -41.53125 C 27.398438 -40.675781 28.726562 -39.988281 29.875 -39.46875 C 31.019531 -38.945312 32.785156 -38.164062 35.171875 -37.125 C 39.335938 -35.351562 42.890625 -32.945312 45.828125 -29.90625 C 48.765625 -26.863281 50.234375 -23.421875 50.234375 -19.578125 C 50.234375 -15.890625 49.566406 -12.664062 48.234375 -9.90625 C 46.910156 -7.144531 45.09375 -4.984375 42.78125 -3.421875 C 40.46875 -1.867188 37.90625 -0.71875 35.09375 0.03125 C 32.289062 0.789062 29.25 1.171875 25.96875 1.171875 C 23.164062 1.171875 20.410156 0.882812 17.703125 0.3125 C 15.003906 -0.257812 12.742188 -0.972656 10.921875 -1.828125 C 9.097656 -2.691406 7.457031 -3.535156 6 -4.359375 C 4.550781 -5.191406 3.488281 -5.894531 2.8125 -6.46875 L 1.796875 -7.328125 L 9.125 -19.65625 C 9.75 -19.132812 10.609375 -18.46875 11.703125 -17.65625 C 12.796875 -16.851562 14.734375 -15.773438 17.515625 -14.421875 C 20.296875 -13.078125 22.75 -12.40625 24.875 -12.40625 C 31.0625 -12.40625 34.15625 -14.507812 34.15625 -18.71875 C 34.15625 -19.601562 33.9375 -20.421875 33.5 -21.171875 C 33.0625 -21.929688 32.28125 -22.6875 31.15625 -23.4375 C 30.039062 -24.1875 29.050781 -24.78125 28.1875 -25.21875 C 27.332031 -25.664062 25.929688 -26.34375 23.984375 -27.25 C 22.035156 -28.164062 20.59375 -28.859375 19.65625 -29.328125 C 15.757812 -31.253906 12.742188 -33.660156 10.609375 -36.546875 C 8.472656 -39.429688 7.40625 -42.535156 7.40625 -45.859375 C 7.40625 -51.628906 9.535156 -56.347656 13.796875 -60.015625 C 18.066406 -63.679688 22.929688 -65.515625 28.390625 -65.515625 Z M 28.390625 -65.515625 "/></g></g></g><g fill="#ffffff" fill-opacity="1"><g transform="translate(441.108268, 675.892498)"><g><path d="M 0.625 -51.484375 L 0.625 -64.34375 L 45.859375 -64.34375 L 45.859375 -51.484375 L 30.578125 -51.484375 L 30.578125 0 L 15.90625 0 L 15.90625 -51.484375 Z M 0.625 -51.484375 "/></g></g></g><g fill="#ffffff" fill-opacity="1"><g transform="translate(487.596318, 675.892498)"><g><path d="M 4.6875 -64.34375 L 27.6875 -64.34375 C 33.875 -64.34375 38.914062 -62.691406 42.8125 -59.390625 C 46.71875 -56.085938 48.671875 -51.367188 48.671875 -45.234375 C 48.671875 -40.503906 47.488281 -36.539062 45.125 -33.34375 C 42.757812 -30.144531 39.546875 -27.894531 35.484375 -26.59375 L 57.640625 0 L 39 0 L 19.34375 -25.421875 L 19.34375 0 L 4.6875 0 Z M 19.34375 -35.796875 L 21.0625 -35.796875 C 22.414062 -35.796875 23.554688 -35.820312 24.484375 -35.875 C 25.421875 -35.925781 26.488281 -36.109375 27.6875 -36.421875 C 28.882812 -36.734375 29.847656 -37.175781 30.578125 -37.75 C 31.304688 -38.320312 31.929688 -39.15625 32.453125 -40.25 C 32.972656 -41.34375 33.234375 -42.664062 33.234375 -44.21875 C 33.234375 -45.78125 32.972656 -47.109375 32.453125 -48.203125 C 31.929688 -49.296875 31.304688 -50.128906 30.578125 -50.703125 C 29.847656 -51.273438 28.882812 -51.71875 27.6875 -52.03125 C 26.488281 -52.34375 25.421875 -52.523438 24.484375 -52.578125 C 23.554688 -52.628906 22.414062 -52.65625 21.0625 -52.65625 L 19.34375 -52.65625 Z M 19.34375 -35.796875 "/></g></g></g><g fill="#ffffff" fill-opacity="1"><g transform="translate(543.444353, 675.892498)"><g><path d="M 37.359375 -64.34375 L 63.34375 0 L 47.578125 0 L 42.828125 -12.875 L 18.328125 -12.875 L 13.578125 0 L -2.1875 0 L 23.796875 -64.34375 Z M 37.828125 -25.734375 L 30.65625 -44.453125 L 30.5 -44.453125 L 23.328125 -25.734375 Z M 37.828125 -25.734375 "/></g></g></g><g fill="#ffffff" fill-opacity="1"><g transform="translate(604.596403, 675.892498)"><g><path d="M 4.6875 -64.34375 L 28.15625 -64.34375 C 34.707031 -64.34375 40.007812 -62.648438 44.0625 -59.265625 C 48.125 -55.890625 50.15625 -50.976562 50.15625 -44.53125 C 50.15625 -38.082031 48.097656 -33.023438 43.984375 -29.359375 C 39.878906 -25.703125 34.601562 -23.875 28.15625 -23.875 L 19.34375 -23.875 L 19.34375 0 L 4.6875 0 Z M 19.34375 -35.5625 L 23.484375 -35.5625 C 26.753906 -35.5625 29.441406 -36.222656 31.546875 -37.546875 C 33.648438 -38.878906 34.703125 -41.050781 34.703125 -44.0625 C 34.703125 -47.132812 33.648438 -49.332031 31.546875 -50.65625 C 29.441406 -51.988281 26.753906 -52.65625 23.484375 -52.65625 L 19.34375 -52.65625 Z M 19.34375 -35.5625 "/></g></g></g></svg>