<svg xmlns="http://www.w3.org/2000/svg" xmlns:xlink="http://www.w3.org/1999/xlink" width="1080" zoomAndPan="magnify" viewBox="0 0 810 809.999993" height="1080" preserveAspectRatio="xMidYMid meet" version="1.0"><defs><g/><clipPath id="3b1727e719"><path d="M 310 123 L 624.761719 123 L 624.761719 569.546875 L 310 569.546875 Z M 310 123 " clip-rule="nonzero"/></clipPath><clipPath id="e861d373f2"><path d="M 186 94.046875 L 437 94.046875 L 437 487 L 186 487 Z M 186 94.046875 " clip-rule="nonzero"/></clipPath></defs><path fill="#ffffff" d="M 341.15625 196.515625 C 279.074219 185.207031 229.980469 197.035156 210.414062 230.929688 C 195.808594 256.214844 199.980469 289.746094 220.53125 325.582031 C 220.738281 325.945312 220.980469 326.28125 221.257812 326.597656 C 221.53125 326.910156 221.835938 327.195312 222.167969 327.449219 C 222.496094 327.703125 222.851562 327.925781 223.226562 328.109375 C 223.597656 328.296875 223.988281 328.441406 224.390625 328.550781 C 224.796875 328.660156 225.203125 328.730469 225.621094 328.757812 C 226.039062 328.789062 226.453125 328.777344 226.867188 328.722656 C 227.285156 328.667969 227.6875 328.578125 228.085938 328.445312 C 228.480469 328.3125 228.859375 328.140625 229.222656 327.933594 C 229.585938 327.726562 229.921875 327.484375 230.238281 327.207031 C 230.550781 326.933594 230.835938 326.628906 231.09375 326.300781 C 231.347656 325.96875 231.566406 325.613281 231.753906 325.242188 C 231.9375 324.867188 232.085938 324.476562 232.195312 324.074219 C 232.304688 323.671875 232.371094 323.261719 232.402344 322.84375 C 232.429688 322.425781 232.417969 322.011719 232.363281 321.597656 C 232.3125 321.183594 232.21875 320.777344 232.085938 320.378906 C 231.953125 319.984375 231.785156 319.605469 231.578125 319.242188 C 213.070312 286.949219 209.46875 258.019531 221.4375 237.285156 C 237.769531 209.136719 281.476562 198.578125 338.878906 209.03125 C 339.289062 209.105469 339.703125 209.136719 340.121094 209.128906 C 340.539062 209.121094 340.949219 209.074219 341.359375 208.984375 C 341.765625 208.894531 342.164062 208.769531 342.546875 208.601562 C 342.929688 208.4375 343.292969 208.234375 343.632812 207.996094 C 343.976562 207.757812 344.292969 207.488281 344.585938 207.191406 C 344.875 206.890625 345.136719 206.566406 345.363281 206.214844 C 345.589844 205.863281 345.777344 205.496094 345.933594 205.105469 C 346.085938 204.71875 346.203125 204.320312 346.277344 203.910156 C 346.351562 203.496094 346.386719 203.082031 346.378906 202.667969 C 346.371094 202.25 346.320312 201.835938 346.234375 201.429688 C 346.144531 201.019531 346.015625 200.625 345.851562 200.242188 C 345.683594 199.859375 345.480469 199.496094 345.242188 199.152344 C 345.007812 198.808594 344.738281 198.492188 344.4375 198.199219 C 344.136719 197.910156 343.8125 197.652344 343.460938 197.425781 C 343.113281 197.199219 342.742188 197.007812 342.355469 196.851562 C 341.964844 196.699219 341.566406 196.582031 341.15625 196.507812 Z M 252.816406 369.070312 C 277.921875 396.65625 310.535156 422.535156 347.734375 444.011719 C 437.871094 496.011719 533.746094 509.96875 580.9375 477.75 C 581.28125 477.515625 581.601562 477.246094 581.894531 476.949219 C 582.183594 476.648438 582.445312 476.324219 582.671875 475.972656 C 582.902344 475.625 583.09375 475.253906 583.25 474.867188 C 583.40625 474.480469 583.523438 474.082031 583.601562 473.671875 C 583.675781 473.261719 583.714844 472.847656 583.710938 472.429688 C 583.707031 472.011719 583.660156 471.597656 583.578125 471.1875 C 583.492188 470.777344 583.367188 470.382812 583.207031 469.996094 C 583.042969 469.613281 582.84375 469.246094 582.609375 468.902344 C 582.371094 468.558594 582.105469 468.238281 581.804688 467.945312 C 581.507812 467.65625 581.183594 467.394531 580.832031 467.167969 C 580.484375 466.9375 580.113281 466.746094 579.726562 466.589844 C 579.339844 466.433594 578.941406 466.316406 578.527344 466.238281 C 578.117188 466.164062 577.703125 466.125 577.285156 466.128906 C 576.867188 466.132812 576.457031 466.179688 576.046875 466.261719 C 575.636719 466.347656 575.242188 466.472656 574.855469 466.632812 C 574.472656 466.796875 574.105469 466.996094 573.761719 467.230469 C 531.46875 496.0625 440.386719 482.863281 354.023438 433.046875 C 317.941406 412.214844 286.355469 387.152344 262.15625 360.5625 C 261.871094 360.253906 261.5625 359.976562 261.226562 359.726562 C 260.890625 359.480469 260.53125 359.265625 260.152344 359.089844 C 259.777344 358.914062 259.382812 358.773438 258.976562 358.671875 C 258.574219 358.574219 258.160156 358.511719 257.742188 358.492188 C 257.324219 358.472656 256.910156 358.496094 256.496094 358.554688 C 256.085938 358.617188 255.679688 358.71875 255.289062 358.859375 C 254.894531 359.003906 254.519531 359.179688 254.160156 359.394531 C 253.800781 359.609375 253.46875 359.859375 253.15625 360.136719 C 252.847656 360.421875 252.570312 360.730469 252.324219 361.066406 C 252.074219 361.402344 251.863281 361.761719 251.6875 362.140625 C 251.507812 362.515625 251.371094 362.910156 251.269531 363.316406 C 251.167969 363.71875 251.109375 364.132812 251.089844 364.550781 C 251.070312 364.96875 251.089844 365.382812 251.152344 365.796875 C 251.214844 366.210938 251.316406 366.613281 251.457031 367.007812 C 251.597656 367.398438 251.777344 367.773438 251.992188 368.132812 C 252.207031 368.492188 252.453125 368.824219 252.734375 369.136719 Z M 565.929688 361.398438 C 606.578125 313.371094 620.773438 265.070312 601.25 231.265625 C 586.886719 206.382812 556.515625 193.242188 516.144531 192.722656 C 515.726562 192.71875 515.3125 192.753906 514.902344 192.832031 C 514.492188 192.90625 514.09375 193.023438 513.707031 193.179688 C 513.316406 193.332031 512.949219 193.523438 512.597656 193.753906 C 512.25 193.980469 511.921875 194.238281 511.625 194.53125 C 511.324219 194.824219 511.058594 195.140625 510.820312 195.484375 C 510.582031 195.828125 510.382812 196.191406 510.214844 196.574219 C 510.050781 196.957031 509.925781 197.355469 509.835938 197.761719 C 509.75 198.171875 509.703125 198.585938 509.695312 199 C 509.691406 199.417969 509.726562 199.832031 509.804688 200.246094 C 509.878906 200.65625 509.996094 201.054688 510.152344 201.441406 C 510.304688 201.828125 510.496094 202.199219 510.726562 202.546875 C 510.953125 202.898438 511.210938 203.222656 511.503906 203.523438 C 511.796875 203.820312 512.113281 204.089844 512.457031 204.328125 C 512.800781 204.5625 513.164062 204.765625 513.546875 204.929688 C 513.929688 205.097656 514.328125 205.222656 514.734375 205.3125 C 515.144531 205.398438 515.558594 205.445312 515.976562 205.453125 C 552.351562 205.929688 578.445312 217.242188 590.210938 237.632812 C 606.429688 265.726562 593.773438 308.796875 556.195312 353.191406 C 555.925781 353.507812 555.691406 353.851562 555.488281 354.21875 C 555.285156 354.582031 555.121094 354.964844 554.996094 355.363281 C 554.867188 355.761719 554.78125 356.167969 554.734375 356.582031 C 554.6875 357 554.679688 357.414062 554.714844 357.832031 C 554.75 358.246094 554.824219 358.65625 554.9375 359.058594 C 555.054688 359.460938 555.207031 359.847656 555.398438 360.21875 C 555.585938 360.589844 555.8125 360.941406 556.070312 361.265625 C 556.332031 361.59375 556.621094 361.894531 556.9375 362.164062 C 557.257812 362.433594 557.601562 362.667969 557.964844 362.871094 C 558.332031 363.074219 558.714844 363.238281 559.113281 363.367188 C 559.511719 363.492188 559.917969 363.578125 560.332031 363.625 C 560.746094 363.675781 561.164062 363.679688 561.578125 363.644531 C 561.996094 363.613281 562.40625 363.535156 562.804688 363.421875 C 563.207031 363.308594 563.59375 363.15625 563.964844 362.964844 C 564.339844 362.773438 564.6875 362.546875 565.015625 362.289062 C 565.34375 362.03125 565.640625 361.742188 565.914062 361.421875 Z M 461.449219 198.625 C 424.703125 206.492188 385.566406 221.894531 347.992188 243.589844 C 255.019531 297.261719 194.371094 376.492188 202.78125 433.800781 C 202.84375 434.214844 202.945312 434.617188 203.085938 435.011719 C 203.226562 435.40625 203.402344 435.78125 203.617188 436.140625 C 203.832031 436.496094 204.082031 436.832031 204.359375 437.140625 C 204.640625 437.449219 204.949219 437.730469 205.285156 437.980469 C 205.617188 438.230469 205.976562 438.445312 206.351562 438.625 C 206.730469 438.800781 207.121094 438.945312 207.523438 439.046875 C 207.929688 439.148438 208.339844 439.210938 208.757812 439.234375 C 209.175781 439.253906 209.589844 439.238281 210.003906 439.175781 C 210.417969 439.117188 210.820312 439.015625 211.214844 438.875 C 211.605469 438.730469 211.984375 438.554688 212.339844 438.339844 C 212.699219 438.125 213.03125 437.878906 213.34375 437.597656 C 213.652344 437.316406 213.933594 437.007812 214.179688 436.675781 C 214.429688 436.339844 214.644531 435.984375 214.824219 435.605469 C 215.003906 435.230469 215.144531 434.835938 215.246094 434.433594 C 215.351562 434.027344 215.414062 433.617188 215.433594 433.199219 C 215.457031 432.78125 215.4375 432.367188 215.378906 431.953125 C 207.902344 381 265.390625 305.976562 354.347656 254.53125 C 390.722656 233.484375 428.679688 218.578125 464.105469 210.984375 C 464.515625 210.894531 464.910156 210.765625 465.292969 210.601562 C 465.675781 210.433594 466.039062 210.234375 466.382812 209.996094 C 466.726562 209.757812 467.042969 209.488281 467.335938 209.191406 C 467.625 208.890625 467.882812 208.566406 468.109375 208.214844 C 468.339844 207.863281 468.527344 207.492188 468.683594 207.105469 C 468.835938 206.71875 468.953125 206.320312 469.027344 205.90625 C 469.105469 205.496094 469.140625 205.082031 469.136719 204.664062 C 469.128906 204.25 469.085938 203.835938 469 203.425781 C 468.910156 203.019531 468.78125 202.621094 468.617188 202.238281 C 468.449219 201.855469 468.246094 201.492188 468.011719 201.148438 C 467.773438 200.804688 467.503906 200.488281 467.203125 200.199219 C 466.90625 199.90625 466.578125 199.648438 466.230469 199.421875 C 465.878906 199.195312 465.507812 199.003906 465.121094 198.847656 C 464.734375 198.695312 464.332031 198.578125 463.921875 198.503906 C 463.511719 198.425781 463.097656 198.390625 462.679688 198.398438 C 462.261719 198.402344 461.851562 198.449219 461.441406 198.535156 Z M 461.449219 198.625 " fill-opacity="1" fill-rule="evenodd"/><g clip-path="url(#3b1727e719)"><path fill="#ffffff" d="M 310.832031 473.609375 C 332.085938 532.960938 366.855469 569.503906 405.964844 569.503906 C 434.484375 569.503906 460.871094 550.054688 481.441406 515.832031 C 481.65625 515.476562 481.832031 515.097656 481.972656 514.707031 C 482.113281 514.3125 482.214844 513.910156 482.273438 513.496094 C 482.335938 513.082031 482.355469 512.667969 482.335938 512.25 C 482.316406 511.832031 482.257812 511.421875 482.15625 511.015625 C 482.054688 510.609375 481.914062 510.21875 481.738281 509.839844 C 481.558594 509.460938 481.347656 509.105469 481.097656 508.769531 C 480.851562 508.433594 480.574219 508.125 480.265625 507.84375 C 479.957031 507.5625 479.621094 507.3125 479.265625 507.097656 C 478.90625 506.882812 478.53125 506.703125 478.136719 506.5625 C 477.742188 506.421875 477.339844 506.320312 476.925781 506.261719 C 476.515625 506.199219 476.097656 506.179688 475.679688 506.199219 C 475.265625 506.21875 474.851562 506.28125 474.449219 506.378906 C 474.042969 506.480469 473.652344 506.621094 473.273438 506.796875 C 472.894531 506.976562 472.539062 507.1875 472.203125 507.4375 C 471.863281 507.683594 471.554688 507.964844 471.273438 508.273438 C 470.992188 508.582031 470.742188 508.914062 470.527344 509.269531 C 451.96875 540.027344 429.328125 556.757812 405.964844 556.757812 C 373.488281 556.757812 342.46875 524.097656 322.820312 469.308594 C 322.679688 468.917969 322.5 468.542969 322.285156 468.183594 C 322.066406 467.824219 321.820312 467.492188 321.539062 467.183594 C 321.257812 466.875 320.949219 466.59375 320.613281 466.347656 C 320.277344 466.097656 319.921875 465.886719 319.542969 465.707031 C 319.164062 465.527344 318.773438 465.386719 318.367188 465.285156 C 317.960938 465.183594 317.550781 465.125 317.132812 465.101562 C 316.714844 465.082031 316.300781 465.101562 315.886719 465.164062 C 315.472656 465.222656 315.070312 465.324219 314.675781 465.464844 C 314.285156 465.605469 313.910156 465.785156 313.550781 466 C 313.191406 466.214844 312.859375 466.464844 312.550781 466.746094 C 312.242188 467.027344 311.960938 467.335938 311.714844 467.671875 C 311.464844 468.007812 311.25 468.363281 311.074219 468.742188 C 310.894531 469.121094 310.753906 469.511719 310.652344 469.917969 C 310.550781 470.324219 310.492188 470.734375 310.46875 471.152344 C 310.449219 471.570312 310.46875 471.984375 310.53125 472.398438 C 310.589844 472.8125 310.691406 473.214844 310.832031 473.609375 Z M 504.980469 461.996094 C 515.980469 426.832031 521.890625 386.277344 521.890625 344 C 521.890625 238.523438 484.972656 147.601562 432.394531 124.261719 C 432.011719 124.09375 431.617188 123.964844 431.207031 123.871094 C 430.800781 123.78125 430.386719 123.730469 429.96875 123.71875 C 429.550781 123.710938 429.136719 123.742188 428.726562 123.8125 C 428.3125 123.882812 427.914062 123.996094 427.523438 124.144531 C 427.132812 124.296875 426.761719 124.480469 426.410156 124.707031 C 426.054688 124.929688 425.726562 125.183594 425.421875 125.472656 C 425.121094 125.757812 424.847656 126.074219 424.605469 126.414062 C 424.367188 126.753906 424.160156 127.117188 423.988281 127.496094 C 423.820312 127.878906 423.691406 128.273438 423.601562 128.683594 C 423.507812 129.089844 423.457031 129.503906 423.449219 129.921875 C 423.4375 130.339844 423.46875 130.753906 423.539062 131.164062 C 423.613281 131.578125 423.722656 131.976562 423.875 132.367188 C 424.023438 132.757812 424.210938 133.128906 424.433594 133.480469 C 424.65625 133.835938 424.910156 134.164062 425.199219 134.464844 C 425.488281 134.769531 425.800781 135.042969 426.140625 135.285156 C 426.484375 135.523438 426.84375 135.730469 427.226562 135.902344 C 474.128906 156.71875 509.152344 243.015625 509.152344 344.007812 C 509.152344 385.015625 503.4375 424.300781 492.820312 458.203125 C 492.695312 458.601562 492.613281 459.011719 492.570312 459.425781 C 492.523438 459.839844 492.523438 460.257812 492.558594 460.671875 C 492.597656 461.089844 492.675781 461.496094 492.792969 461.898438 C 492.910156 462.300781 493.066406 462.683594 493.261719 463.054688 C 493.453125 463.425781 493.679688 463.773438 493.941406 464.097656 C 494.203125 464.425781 494.496094 464.722656 494.816406 464.988281 C 495.136719 465.257812 495.480469 465.492188 495.847656 465.695312 C 496.210938 465.894531 496.59375 466.058594 496.992188 466.183594 C 497.390625 466.308594 497.800781 466.390625 498.214844 466.4375 C 498.628906 466.480469 499.046875 466.484375 499.460938 466.445312 C 499.878906 466.40625 500.285156 466.328125 500.6875 466.210938 C 501.089844 466.09375 501.472656 465.9375 501.84375 465.746094 C 502.214844 465.550781 502.5625 465.324219 502.886719 465.0625 C 503.214844 464.800781 503.511719 464.507812 503.777344 464.1875 C 504.046875 463.867188 504.28125 463.527344 504.484375 463.160156 C 504.683594 462.792969 504.847656 462.410156 504.972656 462.011719 Z M 624.886719 455.761719 C 624.886719 438.933594 611.242188 425.289062 594.414062 425.289062 C 577.582031 425.289062 563.863281 438.851562 563.863281 455.761719 C 563.863281 472.671875 577.507812 486.234375 594.339844 486.234375 C 611.167969 486.234375 624.8125 472.589844 624.8125 455.761719 Z M 612.15625 455.761719 C 612.15625 456.34375 612.125 456.921875 612.070312 457.5 C 612.011719 458.078125 611.925781 458.652344 611.8125 459.222656 C 611.699219 459.789062 611.558594 460.351562 611.390625 460.910156 C 611.222656 461.464844 611.023438 462.011719 610.804688 462.546875 C 610.582031 463.082031 610.332031 463.609375 610.058594 464.121094 C 609.785156 464.632812 609.488281 465.128906 609.164062 465.613281 C 608.839844 466.097656 608.496094 466.5625 608.125 467.011719 C 607.757812 467.460938 607.367188 467.890625 606.957031 468.300781 C 606.546875 468.710938 606.117188 469.101562 605.667969 469.46875 C 605.21875 469.835938 604.753906 470.183594 604.269531 470.503906 C 603.789062 470.828125 603.289062 471.125 602.777344 471.398438 C 602.265625 471.675781 601.742188 471.921875 601.207031 472.144531 C 600.667969 472.367188 600.121094 472.5625 599.566406 472.730469 C 599.011719 472.898438 598.449219 473.042969 597.878906 473.15625 C 597.308594 473.269531 596.734375 473.351562 596.15625 473.410156 C 595.578125 473.46875 595 473.496094 594.417969 473.496094 C 593.839844 473.496094 593.261719 473.46875 592.683594 473.410156 C 592.105469 473.351562 591.53125 473.269531 590.960938 473.15625 C 590.390625 473.042969 589.828125 472.898438 589.273438 472.730469 C 588.71875 472.5625 588.171875 472.367188 587.632812 472.144531 C 587.097656 471.921875 586.574219 471.675781 586.0625 471.398438 C 585.550781 471.125 585.050781 470.828125 584.570312 470.503906 C 584.085938 470.183594 583.621094 469.835938 583.171875 469.46875 C 582.722656 469.101562 582.292969 468.710938 581.882812 468.300781 C 581.472656 467.890625 581.082031 467.460938 580.714844 467.011719 C 580.34375 466.5625 580 466.097656 579.675781 465.613281 C 579.351562 465.128906 579.054688 464.632812 578.78125 464.121094 C 578.507812 463.609375 578.257812 463.082031 578.035156 462.546875 C 577.816406 462.011719 577.617188 461.464844 577.449219 460.910156 C 577.28125 460.351562 577.140625 459.789062 577.027344 459.222656 C 576.914062 458.652344 576.828125 458.078125 576.769531 457.5 C 576.714844 456.921875 576.683594 456.34375 576.683594 455.761719 C 576.683594 455.179688 576.714844 454.601562 576.769531 454.023438 C 576.828125 453.445312 576.914062 452.871094 577.027344 452.300781 C 577.140625 451.734375 577.28125 451.171875 577.449219 450.613281 C 577.617188 450.058594 577.816406 449.511719 578.035156 448.976562 C 578.257812 448.4375 578.507812 447.914062 578.78125 447.402344 C 579.054688 446.890625 579.351562 446.394531 579.675781 445.910156 C 580 445.425781 580.34375 444.960938 580.714844 444.511719 C 581.082031 444.0625 581.472656 443.632812 581.882812 443.222656 C 582.292969 442.8125 582.722656 442.421875 583.171875 442.054688 C 583.621094 441.6875 584.085938 441.339844 584.570312 441.019531 C 585.050781 440.695312 585.550781 440.398438 586.0625 440.121094 C 586.574219 439.847656 587.097656 439.601562 587.632812 439.378906 C 588.171875 439.15625 588.71875 438.960938 589.273438 438.792969 C 589.828125 438.625 590.390625 438.480469 590.960938 438.367188 C 591.53125 438.253906 592.105469 438.167969 592.683594 438.113281 C 593.261719 438.054688 593.839844 438.027344 594.417969 438.027344 C 595 438.027344 595.578125 438.054688 596.15625 438.113281 C 596.734375 438.167969 597.308594 438.253906 597.878906 438.367188 C 598.449219 438.480469 599.011719 438.625 599.566406 438.792969 C 600.121094 438.960938 600.667969 439.15625 601.207031 439.378906 C 601.742188 439.601562 602.265625 439.847656 602.777344 440.121094 C 603.289062 440.398438 603.789062 440.695312 604.269531 441.019531 C 604.753906 441.339844 605.21875 441.6875 605.667969 442.054688 C 606.117188 442.421875 606.546875 442.8125 606.957031 443.222656 C 607.367188 443.632812 607.757812 444.0625 608.125 444.511719 C 608.496094 444.960938 608.839844 445.425781 609.164062 445.910156 C 609.488281 446.394531 609.785156 446.890625 610.058594 447.402344 C 610.332031 447.914062 610.582031 448.4375 610.804688 448.976562 C 611.023438 449.511719 611.222656 450.058594 611.390625 450.613281 C 611.558594 451.171875 611.699219 451.734375 611.8125 452.300781 C 611.925781 452.871094 612.011719 453.445312 612.070312 454.023438 C 612.125 454.601562 612.15625 455.179688 612.15625 455.761719 Z M 612.15625 455.761719 " fill-opacity="1" fill-rule="evenodd"/></g><g clip-path="url(#e861d373f2)"><path fill="#ffffff" d="M 217.0625 486.234375 C 233.894531 486.234375 247.539062 472.589844 247.539062 455.761719 C 247.539062 438.933594 233.894531 425.289062 217.0625 425.289062 C 216.066406 425.289062 215.070312 425.335938 214.078125 425.433594 C 213.082031 425.53125 212.097656 425.679688 211.117188 425.875 C 210.140625 426.070312 209.171875 426.3125 208.21875 426.601562 C 207.261719 426.890625 206.324219 427.226562 205.402344 427.609375 C 204.480469 427.992188 203.578125 428.417969 202.699219 428.886719 C 201.820312 429.359375 200.964844 429.871094 200.132812 430.425781 C 199.304688 430.980469 198.503906 431.574219 197.734375 432.207031 C 196.960938 432.839844 196.222656 433.511719 195.515625 434.214844 C 194.8125 434.921875 194.140625 435.660156 193.507812 436.433594 C 192.875 437.203125 192.28125 438.003906 191.726562 438.835938 C 191.171875 439.664062 190.660156 440.519531 190.191406 441.398438 C 189.71875 442.28125 189.292969 443.179688 188.914062 444.101562 C 188.53125 445.027344 188.195312 445.964844 187.90625 446.917969 C 187.617188 447.875 187.375 448.839844 187.179688 449.820312 C 186.984375 450.800781 186.839844 451.785156 186.738281 452.777344 C 186.640625 453.773438 186.59375 454.765625 186.59375 455.765625 C 186.59375 456.761719 186.644531 457.757812 186.742188 458.753906 C 186.839844 459.746094 186.984375 460.730469 187.179688 461.710938 C 187.375 462.6875 187.617188 463.65625 187.90625 464.609375 C 188.195312 465.566406 188.53125 466.503906 188.914062 467.425781 C 189.296875 468.347656 189.722656 469.25 190.195312 470.128906 C 190.664062 471.011719 191.175781 471.867188 191.730469 472.695312 C 192.285156 473.523438 192.878906 474.324219 193.511719 475.097656 C 194.148438 475.867188 194.816406 476.605469 195.523438 477.3125 C 196.226562 478.019531 196.964844 478.6875 197.738281 479.320312 C 198.507812 479.953125 199.308594 480.546875 200.140625 481.101562 C 200.96875 481.65625 201.824219 482.167969 202.707031 482.640625 C 203.585938 483.109375 204.488281 483.535156 205.410156 483.917969 C 206.332031 484.300781 207.269531 484.632812 208.226562 484.925781 C 209.179688 485.214844 210.148438 485.457031 211.125 485.652344 C 212.105469 485.84375 213.089844 485.992188 214.085938 486.089844 C 215.078125 486.1875 216.074219 486.234375 217.070312 486.234375 Z M 217.0625 473.503906 C 216.484375 473.503906 215.902344 473.476562 215.324219 473.417969 C 214.746094 473.359375 214.175781 473.277344 213.605469 473.160156 C 213.035156 473.046875 212.472656 472.90625 211.917969 472.738281 C 211.359375 472.570312 210.816406 472.375 210.277344 472.152344 C 209.742188 471.929688 209.21875 471.679688 208.707031 471.40625 C 208.191406 471.132812 207.695312 470.835938 207.210938 470.511719 C 206.730469 470.191406 206.265625 469.84375 205.816406 469.476562 C 205.367188 469.109375 204.9375 468.71875 204.527344 468.308594 C 204.113281 467.898438 203.726562 467.46875 203.355469 467.019531 C 202.988281 466.570312 202.644531 466.101562 202.320312 465.621094 C 201.996094 465.136719 201.699219 464.640625 201.425781 464.128906 C 201.152344 463.617188 200.902344 463.089844 200.679688 462.554688 C 200.457031 462.019531 200.261719 461.472656 200.09375 460.917969 C 199.925781 460.359375 199.785156 459.796875 199.671875 459.226562 C 199.558594 458.660156 199.472656 458.085938 199.414062 457.507812 C 199.359375 456.929688 199.328125 456.351562 199.328125 455.769531 C 199.328125 455.1875 199.359375 454.609375 199.414062 454.03125 C 199.472656 453.453125 199.558594 452.878906 199.671875 452.308594 C 199.785156 451.738281 199.925781 451.175781 200.09375 450.621094 C 200.261719 450.066406 200.457031 449.519531 200.679688 448.984375 C 200.902344 448.445312 201.152344 447.921875 201.425781 447.410156 C 201.699219 446.898438 201.996094 446.402344 202.320312 445.917969 C 202.644531 445.433594 202.988281 444.96875 203.355469 444.519531 C 203.726562 444.070312 204.113281 443.640625 204.527344 443.230469 C 204.9375 442.820312 205.367188 442.429688 205.816406 442.0625 C 206.265625 441.695312 206.730469 441.347656 207.210938 441.023438 C 207.695312 440.703125 208.191406 440.402344 208.707031 440.128906 C 209.21875 439.855469 209.742188 439.609375 210.277344 439.386719 C 210.816406 439.164062 211.359375 438.96875 211.917969 438.800781 C 212.472656 438.628906 213.035156 438.488281 213.605469 438.375 C 214.175781 438.261719 214.746094 438.175781 215.324219 438.121094 C 215.902344 438.0625 216.484375 438.035156 217.0625 438.035156 C 217.644531 438.035156 218.222656 438.0625 218.800781 438.121094 C 219.378906 438.175781 219.953125 438.261719 220.523438 438.375 C 221.09375 438.488281 221.65625 438.628906 222.210938 438.800781 C 222.765625 438.96875 223.3125 439.164062 223.851562 439.386719 C 224.386719 439.609375 224.910156 439.855469 225.421875 440.128906 C 225.933594 440.402344 226.433594 440.703125 226.914062 441.023438 C 227.398438 441.347656 227.863281 441.695312 228.3125 442.0625 C 228.761719 442.429688 229.191406 442.820312 229.601562 443.230469 C 230.011719 443.640625 230.402344 444.070312 230.769531 444.519531 C 231.140625 444.96875 231.484375 445.433594 231.808594 445.917969 C 232.128906 446.402344 232.429688 446.898438 232.703125 447.410156 C 232.976562 447.921875 233.222656 448.445312 233.445312 448.984375 C 233.667969 449.519531 233.863281 450.066406 234.035156 450.621094 C 234.203125 451.175781 234.34375 451.738281 234.457031 452.308594 C 234.570312 452.878906 234.65625 453.453125 234.710938 454.03125 C 234.769531 454.609375 234.796875 455.1875 234.800781 455.769531 C 234.796875 456.351562 234.769531 456.929688 234.710938 457.507812 C 234.65625 458.085938 234.570312 458.660156 234.457031 459.226562 C 234.34375 459.796875 234.203125 460.359375 234.035156 460.917969 C 233.863281 461.472656 233.667969 462.019531 233.445312 462.554688 C 233.222656 463.089844 232.976562 463.617188 232.703125 464.128906 C 232.429688 464.640625 232.128906 465.136719 231.808594 465.621094 C 231.484375 466.101562 231.140625 466.570312 230.769531 467.019531 C 230.402344 467.46875 230.011719 467.898438 229.601562 468.308594 C 229.191406 468.71875 228.761719 469.109375 228.3125 469.476562 C 227.863281 469.84375 227.398438 470.191406 226.914062 470.511719 C 226.433594 470.835938 225.933594 471.132812 225.421875 471.40625 C 224.910156 471.679688 224.386719 471.929688 223.851562 472.152344 C 223.3125 472.375 222.765625 472.570312 222.210938 472.738281 C 221.65625 472.90625 221.09375 473.046875 220.523438 473.160156 C 219.953125 473.277344 219.378906 473.359375 218.800781 473.417969 C 218.222656 473.476562 217.644531 473.503906 217.0625 473.503906 Z M 405.964844 155.269531 C 422.792969 155.269531 436.4375 141.625 436.4375 124.796875 C 436.4375 107.964844 422.785156 94.394531 405.964844 94.394531 C 389.144531 94.394531 375.492188 108.039062 375.492188 124.871094 C 375.492188 141.699219 389.136719 155.269531 405.964844 155.269531 Z M 405.964844 142.539062 C 405.382812 142.539062 404.804688 142.507812 404.226562 142.453125 C 403.648438 142.394531 403.074219 142.308594 402.503906 142.195312 C 401.9375 142.082031 401.371094 141.941406 400.816406 141.773438 C 400.261719 141.605469 399.714844 141.410156 399.179688 141.1875 C 398.640625 140.964844 398.117188 140.714844 397.605469 140.441406 C 397.09375 140.167969 396.597656 139.871094 396.113281 139.546875 C 395.628906 139.222656 395.164062 138.878906 394.714844 138.511719 C 394.265625 138.140625 393.835938 137.753906 393.425781 137.339844 C 393.015625 136.929688 392.625 136.5 392.257812 136.050781 C 391.890625 135.601562 391.542969 135.136719 391.222656 134.65625 C 390.898438 134.171875 390.601562 133.675781 390.324219 133.160156 C 390.050781 132.648438 389.804688 132.125 389.582031 131.589844 C 389.359375 131.050781 389.164062 130.507812 388.996094 129.949219 C 388.828125 129.394531 388.683594 128.832031 388.570312 128.261719 C 388.457031 127.691406 388.371094 127.121094 388.316406 126.542969 C 388.257812 125.964844 388.230469 125.382812 388.230469 124.804688 C 388.230469 124.222656 388.257812 123.644531 388.316406 123.066406 C 388.371094 122.488281 388.457031 121.914062 388.570312 121.34375 C 388.683594 120.773438 388.828125 120.210938 388.996094 119.65625 C 389.164062 119.101562 389.359375 118.554688 389.582031 118.015625 C 389.804688 117.480469 390.050781 116.957031 390.324219 116.445312 C 390.601562 115.933594 390.898438 115.433594 391.222656 114.953125 C 391.542969 114.46875 391.890625 114.003906 392.257812 113.554688 C 392.625 113.105469 393.015625 112.675781 393.425781 112.265625 C 393.835938 111.855469 394.265625 111.464844 394.714844 111.097656 C 395.164062 110.726562 395.628906 110.382812 396.113281 110.058594 C 396.597656 109.738281 397.09375 109.4375 397.605469 109.164062 C 398.117188 108.890625 398.640625 108.640625 399.179688 108.421875 C 399.714844 108.199219 400.261719 108.003906 400.816406 107.832031 C 401.371094 107.664062 401.9375 107.523438 402.503906 107.410156 C 403.074219 107.296875 403.648438 107.210938 404.226562 107.152344 C 404.804688 107.097656 405.382812 107.070312 405.964844 107.066406 C 406.546875 107.070312 407.125 107.097656 407.703125 107.152344 C 408.28125 107.210938 408.855469 107.296875 409.425781 107.410156 C 409.992188 107.523438 410.554688 107.664062 411.113281 107.832031 C 411.667969 108.003906 412.214844 108.199219 412.75 108.421875 C 413.285156 108.640625 413.8125 108.890625 414.324219 109.164062 C 414.835938 109.4375 415.332031 109.738281 415.816406 110.058594 C 416.296875 110.382812 416.765625 110.726562 417.214844 111.097656 C 417.664062 111.464844 418.09375 111.855469 418.503906 112.265625 C 418.914062 112.675781 419.304688 113.105469 419.671875 113.554688 C 420.039062 114.003906 420.386719 114.46875 420.707031 114.953125 C 421.03125 115.433594 421.328125 115.933594 421.601562 116.445312 C 421.878906 116.957031 422.125 117.480469 422.347656 118.015625 C 422.570312 118.554688 422.765625 119.101562 422.933594 119.65625 C 423.101562 120.210938 423.242188 120.773438 423.359375 121.34375 C 423.472656 121.914062 423.554688 122.488281 423.613281 123.066406 C 423.671875 123.644531 423.699219 124.222656 423.699219 124.804688 C 423.699219 125.382812 423.671875 125.964844 423.613281 126.542969 C 423.554688 127.121094 423.472656 127.691406 423.359375 128.261719 C 423.242188 128.832031 423.101562 129.394531 422.933594 129.949219 C 422.765625 130.507812 422.570312 131.050781 422.347656 131.589844 C 422.125 132.125 421.878906 132.648438 421.601562 133.160156 C 421.328125 133.675781 421.03125 134.171875 420.707031 134.65625 C 420.386719 135.136719 420.039062 135.601562 419.671875 136.050781 C 419.304688 136.5 418.914062 136.929688 418.503906 137.339844 C 418.09375 137.753906 417.664062 138.140625 417.214844 138.511719 C 416.765625 138.878906 416.296875 139.222656 415.816406 139.546875 C 415.332031 139.871094 414.835938 140.167969 414.324219 140.441406 C 413.8125 140.714844 413.285156 140.964844 412.75 141.1875 C 412.214844 141.410156 411.667969 141.605469 411.113281 141.773438 C 410.554688 141.941406 409.992188 142.082031 409.425781 142.195312 C 408.855469 142.308594 408.28125 142.394531 407.703125 142.453125 C 407.125 142.507812 406.546875 142.539062 405.964844 142.539062 Z M 410.613281 365.542969 C 409.902344 365.699219 409.191406 365.824219 408.46875 365.910156 C 407.75 365.996094 407.027344 366.050781 406.304688 366.066406 C 405.578125 366.082031 404.855469 366.0625 404.132812 366.003906 C 403.410156 365.949219 402.691406 365.859375 401.976562 365.734375 C 401.261719 365.605469 400.554688 365.445312 399.859375 365.25 C 399.160156 365.054688 398.472656 364.824219 397.796875 364.558594 C 397.121094 364.296875 396.460938 364 395.816406 363.671875 C 395.167969 363.339844 394.542969 362.980469 393.929688 362.589844 C 393.320312 362.199219 392.730469 361.78125 392.160156 361.332031 C 391.589844 360.882812 391.046875 360.40625 390.523438 359.902344 C 390 359.398438 389.503906 358.871094 389.035156 358.320312 C 388.566406 357.769531 388.121094 357.195312 387.710938 356.597656 C 387.296875 356.003906 386.914062 355.390625 386.558594 354.753906 C 386.207031 354.121094 385.886719 353.472656 385.597656 352.808594 C 385.308594 352.144531 385.050781 351.464844 384.828125 350.773438 C 384.609375 350.085938 384.421875 349.386719 384.265625 348.675781 C 384.113281 347.96875 383.996094 347.253906 383.914062 346.53125 C 383.832031 345.8125 383.785156 345.089844 383.773438 344.363281 C 383.761719 343.640625 383.785156 342.917969 383.847656 342.195312 C 383.90625 341.472656 384 340.753906 384.132812 340.039062 C 384.261719 339.328125 384.429688 338.621094 384.628906 337.925781 C 384.832031 337.230469 385.066406 336.542969 385.332031 335.871094 C 385.601562 335.195312 385.902344 334.535156 386.234375 333.894531 C 386.566406 333.25 386.933594 332.621094 387.328125 332.015625 C 387.722656 331.40625 388.144531 330.820312 388.597656 330.253906 C 389.050781 329.6875 389.53125 329.144531 390.035156 328.625 C 390.542969 328.105469 391.074219 327.613281 391.628906 327.148438 C 392.183594 326.679688 392.761719 326.242188 393.359375 325.832031 C 393.957031 325.421875 394.574219 325.042969 395.210938 324.695312 C 395.84375 324.34375 396.496094 324.027344 397.164062 323.742188 C 397.828125 323.460938 398.507812 323.207031 399.199219 322.992188 C 399.890625 322.773438 400.59375 322.589844 401.300781 322.441406 C 402.011719 322.285156 402.722656 322.160156 403.445312 322.074219 C 404.164062 321.988281 404.886719 321.933594 405.609375 321.917969 C 406.335938 321.902344 407.058594 321.921875 407.78125 321.980469 C 408.503906 322.035156 409.222656 322.125 409.9375 322.25 C 410.652344 322.378906 411.359375 322.539062 412.054688 322.734375 C 412.753906 322.929688 413.441406 323.160156 414.117188 323.425781 C 414.792969 323.6875 415.453125 323.984375 416.097656 324.3125 C 416.746094 324.640625 417.375 325.003906 417.984375 325.394531 C 418.59375 325.785156 419.183594 326.203125 419.753906 326.652344 C 420.324219 327.101562 420.867188 327.578125 421.390625 328.082031 C 421.914062 328.585938 422.410156 329.113281 422.878906 329.664062 C 423.351562 330.214844 423.792969 330.789062 424.207031 331.386719 C 424.617188 331.980469 425.003906 332.59375 425.355469 333.226562 C 425.707031 333.863281 426.027344 334.511719 426.316406 335.175781 C 426.605469 335.839844 426.863281 336.519531 427.085938 337.207031 C 427.308594 337.898438 427.496094 338.597656 427.648438 339.308594 C 427.800781 340.015625 427.917969 340.730469 428 341.449219 C 428.082031 342.171875 428.128906 342.894531 428.140625 343.617188 C 428.152344 344.34375 428.128906 345.066406 428.066406 345.789062 C 428.007812 346.511719 427.914062 347.230469 427.78125 347.945312 C 427.652344 348.65625 427.484375 349.363281 427.285156 350.058594 C 427.085938 350.753906 426.851562 351.441406 426.582031 352.113281 C 426.3125 352.789062 426.011719 353.445312 425.679688 354.089844 C 425.347656 354.734375 424.984375 355.359375 424.589844 355.96875 C 424.191406 356.578125 423.769531 357.164062 423.316406 357.730469 C 422.863281 358.296875 422.382812 358.839844 421.878906 359.359375 C 421.371094 359.878906 420.839844 360.371094 420.285156 360.835938 C 419.730469 361.304688 419.152344 361.742188 418.554688 362.152344 C 417.957031 362.5625 417.339844 362.941406 416.707031 363.289062 C 416.070312 363.640625 415.417969 363.957031 414.75 364.238281 C 414.085938 364.523438 413.40625 364.777344 412.714844 364.992188 C 412.023438 365.210938 411.320312 365.394531 410.613281 365.542969 Z M 410.613281 365.542969 " fill-opacity="1" fill-rule="evenodd"/></g><g fill="#ffffff" fill-opacity="1"><g transform="translate(135.624988, 685.892385)"><g><path d="M 41.5 -64.34375 L 41.5 -51.484375 L 19.34375 -51.484375 L 19.34375 -38.6875 L 40.5625 -38.6875 L 40.5625 -25.8125 L 19.34375 -25.8125 L 19.34375 -12.875 L 41.5 -12.875 L 41.5 0 L 4.6875 0 L 4.6875 -64.34375 Z M 41.5 -64.34375 "/></g></g></g><g fill="#ffffff" fill-opacity="1"><g transform="translate(180.865025, 685.892385)"><g><path d="M 19.34375 -64.34375 L 19.34375 -12.875 L 41.5 -12.875 L 41.5 0 L 4.6875 0 L 4.6875 -64.34375 Z M 19.34375 -64.34375 "/></g></g></g><g fill="#ffffff" fill-opacity="1"><g transform="translate(224.935065, 685.892385)"><g><path d="M 41.5 -64.34375 L 41.5 -51.484375 L 19.34375 -51.484375 L 19.34375 -38.6875 L 40.5625 -38.6875 L 40.5625 -25.8125 L 19.34375 -25.8125 L 19.34375 -12.875 L 41.5 -12.875 L 41.5 0 L 4.6875 0 L 4.6875 -64.34375 Z M 41.5 -64.34375 "/></g></g></g><g fill="#ffffff" fill-opacity="1"><g transform="translate(270.175103, 685.892385)"><g><path d="M 38.921875 -13.265625 C 41.160156 -13.265625 43.332031 -13.597656 45.4375 -14.265625 C 47.539062 -14.941406 49.085938 -15.59375 50.078125 -16.21875 L 51.5625 -17.234375 L 57.796875 -4.765625 C 57.585938 -4.609375 57.300781 -4.398438 56.9375 -4.140625 C 56.570312 -3.878906 55.726562 -3.394531 54.40625 -2.6875 C 53.082031 -1.988281 51.664062 -1.378906 50.15625 -0.859375 C 48.644531 -0.335938 46.664062 0.128906 44.21875 0.546875 C 41.78125 0.960938 39.257812 1.171875 36.65625 1.171875 C 30.675781 1.171875 25.007812 -0.296875 19.65625 -3.234375 C 14.300781 -6.171875 9.984375 -10.210938 6.703125 -15.359375 C 3.429688 -20.515625 1.796875 -26.082031 1.796875 -32.0625 C 1.796875 -36.582031 2.753906 -40.921875 4.671875 -45.078125 C 6.597656 -49.242188 9.160156 -52.804688 12.359375 -55.765625 C 15.554688 -58.734375 19.285156 -61.097656 23.546875 -62.859375 C 27.816406 -64.628906 32.1875 -65.515625 36.65625 -65.515625 C 40.820312 -65.515625 44.660156 -65.019531 48.171875 -64.03125 C 51.679688 -63.050781 54.160156 -62.066406 55.609375 -61.078125 L 57.796875 -59.59375 L 51.5625 -47.109375 C 51.195312 -47.421875 50.648438 -47.796875 49.921875 -48.234375 C 49.191406 -48.679688 47.734375 -49.269531 45.546875 -50 C 43.367188 -50.726562 41.160156 -51.09375 38.921875 -51.09375 C 35.390625 -51.09375 32.21875 -50.519531 29.40625 -49.375 C 26.59375 -48.226562 24.367188 -46.71875 22.734375 -44.84375 C 21.097656 -42.976562 19.847656 -40.960938 18.984375 -38.796875 C 18.128906 -36.640625 17.703125 -34.445312 17.703125 -32.21875 C 17.703125 -27.320312 19.535156 -22.9375 23.203125 -19.0625 C 26.867188 -15.195312 32.109375 -13.265625 38.921875 -13.265625 Z M 38.921875 -13.265625 "/></g></g></g><g fill="#ffffff" fill-opacity="1"><g transform="translate(328.909142, 685.892385)"><g><path d="M 0.625 -51.484375 L 0.625 -64.34375 L 45.859375 -64.34375 L 45.859375 -51.484375 L 30.578125 -51.484375 L 30.578125 0 L 15.90625 0 L 15.90625 -51.484375 Z M 0.625 -51.484375 "/></g></g></g><g fill="#ffffff" fill-opacity="1"><g transform="translate(375.397193, 685.892385)"><g><path d="M 4.6875 -64.34375 L 27.6875 -64.34375 C 33.875 -64.34375 38.914062 -62.691406 42.8125 -59.390625 C 46.71875 -56.085938 48.671875 -51.367188 48.671875 -45.234375 C 48.671875 -40.503906 47.488281 -36.539062 45.125 -33.34375 C 42.757812 -30.144531 39.546875 -27.894531 35.484375 -26.59375 L 57.640625 0 L 39 0 L 19.34375 -25.421875 L 19.34375 0 L 4.6875 0 Z M 19.34375 -35.796875 L 21.0625 -35.796875 C 22.414062 -35.796875 23.554688 -35.820312 24.484375 -35.875 C 25.421875 -35.925781 26.488281 -36.109375 27.6875 -36.421875 C 28.882812 -36.734375 29.847656 -37.175781 30.578125 -37.75 C 31.304688 -38.320312 31.929688 -39.15625 32.453125 -40.25 C 32.972656 -41.34375 33.234375 -42.664062 33.234375 -44.21875 C 33.234375 -45.78125 32.972656 -47.109375 32.453125 -48.203125 C 31.929688 -49.296875 31.304688 -50.128906 30.578125 -50.703125 C 29.847656 -51.273438 28.882812 -51.71875 27.6875 -52.03125 C 26.488281 -52.34375 25.421875 -52.523438 24.484375 -52.578125 C 23.554688 -52.628906 22.414062 -52.65625 21.0625 -52.65625 L 19.34375 -52.65625 Z M 19.34375 -35.796875 "/></g></g></g><g fill="#ffffff" fill-opacity="1"><g transform="translate(431.245227, 685.892385)"><g><path d="M 1.796875 -32.21875 C 1.796875 -41.519531 4.96875 -49.394531 11.3125 -55.84375 C 17.65625 -62.289062 25.296875 -65.515625 34.234375 -65.515625 C 43.234375 -65.515625 50.878906 -62.300781 57.171875 -55.875 C 63.460938 -49.457031 66.609375 -41.570312 66.609375 -32.21875 C 66.609375 -22.800781 63.515625 -14.878906 57.328125 -8.453125 C 51.140625 -2.035156 43.441406 1.171875 34.234375 1.171875 C 24.828125 1.171875 17.066406 -2.007812 10.953125 -8.375 C 4.847656 -14.75 1.796875 -22.695312 1.796875 -32.21875 Z M 17.625 -32.21875 C 17.625 -28.832031 18.144531 -25.75 19.1875 -22.96875 C 20.226562 -20.1875 22.046875 -17.832031 24.640625 -15.90625 C 27.242188 -13.988281 30.441406 -13.03125 34.234375 -13.03125 C 39.703125 -13.03125 43.828125 -14.898438 46.609375 -18.640625 C 49.390625 -22.390625 50.78125 -26.914062 50.78125 -32.21875 C 50.78125 -37.46875 49.363281 -41.976562 46.53125 -45.75 C 43.695312 -49.519531 39.597656 -51.40625 34.234375 -51.40625 C 28.929688 -51.40625 24.835938 -49.519531 21.953125 -45.75 C 19.066406 -41.976562 17.625 -37.46875 17.625 -32.21875 Z M 17.625 -32.21875 "/></g></g></g><g fill="#ffffff" fill-opacity="1"><g transform="translate(499.651276, 685.892385)"><g><path d="M 19.34375 -39.9375 L 19.34375 0 L 4.6875 0 L 4.6875 -64.34375 L 19.34375 -64.34375 L 44.921875 -24.40625 L 45.078125 -24.40625 L 45.078125 -64.34375 L 59.75 -64.34375 L 59.75 0 L 45.078125 0 L 19.5 -39.9375 Z M 19.34375 -39.9375 "/></g></g></g><g fill="#ffffff" fill-opacity="1"><g transform="translate(564.079312, 685.892385)"><g/></g></g><g fill="#ffffff" fill-opacity="1"><g transform="translate(585.373333, 685.892385)"><g><path d="M 32.6875 -64.34375 L 32.6875 -18.171875 C 32.6875 -11.878906 30.957031 -7.082031 27.5 -3.78125 C 24.039062 -0.476562 19.085938 1.171875 12.640625 1.171875 C 10.921875 1.171875 9.226562 0.960938 7.5625 0.546875 C 5.894531 0.128906 4.488281 -0.375 3.34375 -0.96875 C 2.207031 -1.570312 1.179688 -2.1875 0.265625 -2.8125 C -0.640625 -3.4375 -1.300781 -3.957031 -1.71875 -4.375 L -2.421875 -4.984375 L 2.265625 -17.234375 C 5.328125 -14.328125 8.109375 -12.875 10.609375 -12.875 C 12.847656 -12.875 14.640625 -13.613281 15.984375 -15.09375 C 17.335938 -16.570312 18.015625 -18.847656 18.015625 -21.921875 L 18.015625 -64.34375 Z M 32.6875 -64.34375 "/></g></g></g><g fill="#ffffff" fill-opacity="1"><g transform="translate(621.955377, 685.892385)"><g><path d="M 28.390625 -65.515625 C 31.878906 -65.515625 35.285156 -65.007812 38.609375 -64 C 41.941406 -62.988281 44.410156 -61.988281 46.015625 -61 L 48.359375 -59.4375 L 42.4375 -47.734375 C 41.96875 -48.046875 41.316406 -48.445312 40.484375 -48.9375 C 39.648438 -49.4375 38.085938 -50.101562 35.796875 -50.9375 C 33.515625 -51.769531 31.382812 -52.1875 29.40625 -52.1875 C 26.957031 -52.1875 25.070312 -51.664062 23.75 -50.625 C 22.425781 -49.582031 21.765625 -48.175781 21.765625 -46.40625 C 21.765625 -45.519531 22.078125 -44.703125 22.703125 -43.953125 C 23.328125 -43.203125 24.390625 -42.394531 25.890625 -41.53125 C 27.398438 -40.675781 28.726562 -39.988281 29.875 -39.46875 C 31.019531 -38.945312 32.785156 -38.164062 35.171875 -37.125 C 39.335938 -35.351562 42.890625 -32.945312 45.828125 -29.90625 C 48.765625 -26.863281 50.234375 -23.421875 50.234375 -19.578125 C 50.234375 -15.890625 49.566406 -12.664062 48.234375 -9.90625 C 46.910156 -7.144531 45.09375 -4.984375 42.78125 -3.421875 C 40.46875 -1.867188 37.90625 -0.71875 35.09375 0.03125 C 32.289062 0.789062 29.25 1.171875 25.96875 1.171875 C 23.164062 1.171875 20.410156 0.882812 17.703125 0.3125 C 15.003906 -0.257812 12.742188 -0.972656 10.921875 -1.828125 C 9.097656 -2.691406 7.457031 -3.535156 6 -4.359375 C 4.550781 -5.191406 3.488281 -5.894531 2.8125 -6.46875 L 1.796875 -7.328125 L 9.125 -19.65625 C 9.75 -19.132812 10.609375 -18.46875 11.703125 -17.65625 C 12.796875 -16.851562 14.734375 -15.773438 17.515625 -14.421875 C 20.296875 -13.078125 22.75 -12.40625 24.875 -12.40625 C 31.0625 -12.40625 34.15625 -14.507812 34.15625 -18.71875 C 34.15625 -19.601562 33.9375 -20.421875 33.5 -21.171875 C 33.0625 -21.929688 32.28125 -22.6875 31.15625 -23.4375 C 30.039062 -24.1875 29.050781 -24.78125 28.1875 -25.21875 C 27.332031 -25.664062 25.929688 -26.34375 23.984375 -27.25 C 22.035156 -28.164062 20.59375 -28.859375 19.65625 -29.328125 C 15.757812 -31.253906 12.742188 -33.660156 10.609375 -36.546875 C 8.472656 -39.429688 7.40625 -42.535156 7.40625 -45.859375 C 7.40625 -51.628906 9.535156 -56.347656 13.796875 -60.015625 C 18.066406 -63.679688 22.929688 -65.515625 28.390625 -65.515625 Z M 28.390625 -65.515625 "/></g></g></g></svg>