<svg xmlns="http://www.w3.org/2000/svg" xmlns:xlink="http://www.w3.org/1999/xlink" width="1080" zoomAndPan="magnify" viewBox="0 0 810 809.999993" height="1080" preserveAspectRatio="xMidYMid meet" version="1.0"><defs><clipPath id="43d5a2f8a4"><path d="M 113.292969 219 L 696.792969 219 L 696.792969 590 L 113.292969 590 Z M 113.292969 219 " clip-rule="nonzero"/></clipPath></defs><g clip-path="url(#43d5a2f8a4)"><path fill="#ffffff" d="M 514.164062 219.625 C 511.207031 219.625 508.503906 221.992188 508.503906 225.285156 L 508.503906 328.71875 L 485.050781 315.046875 C 483.582031 314.179688 481.929688 313.761719 480.273438 313.761719 C 478.617188 313.761719 476.960938 314.179688 475.496094 315.046875 L 419.144531 347.90625 C 416.210938 349.601562 414.40625 352.734375 414.40625 356.105469 L 414.40625 421.898438 C 414.40625 425.285156 416.210938 428.402344 419.144531 430.097656 L 475.496094 462.957031 C 476.960938 463.824219 478.617188 464.242188 480.273438 464.242188 C 481.929688 464.242188 483.582031 463.824219 485.050781 462.957031 L 541.398438 430.097656 C 544.335938 428.402344 546.140625 425.269531 546.140625 421.898438 L 546.140625 242.78125 C 546.140625 239.433594 544.351562 236.351562 541.472656 234.660156 L 516.957031 220.398438 C 516.035156 219.871094 515.105469 219.625 514.164062 219.625 Z M 329.714844 313.761719 C 328.066406 313.761719 326.414062 314.191406 324.9375 315.046875 L 268.589844 347.90625 C 265.652344 349.601562 263.847656 352.734375 263.847656 356.105469 L 263.847656 421.898438 C 263.847656 425.285156 265.652344 428.402344 268.589844 430.097656 L 324.9375 462.957031 C 327.894531 464.667969 331.539062 464.667969 334.496094 462.957031 L 390.84375 430.097656 C 393.78125 428.402344 395.585938 425.269531 395.585938 421.898438 L 395.585938 356.105469 C 395.585938 352.71875 393.78125 349.601562 390.84375 347.90625 L 334.496094 315.046875 C 333.019531 314.191406 331.367188 313.761719 329.714844 313.761719 Z M 630.828125 313.761719 C 629.171875 313.761719 627.519531 314.179688 626.050781 315.046875 L 569.703125 347.90625 C 566.765625 349.601562 564.960938 352.734375 564.960938 356.105469 L 564.960938 421.898438 C 564.960938 425.285156 566.765625 428.402344 569.703125 430.097656 L 624.359375 463.140625 C 627.296875 464.929688 630.980469 464.945312 633.953125 463.214844 L 660.824219 447.59375 C 663.609375 445.992188 663.628906 441.953125 660.824219 440.316406 L 602.601562 406.019531 L 602.601562 372.242188 L 630.828125 355.808594 L 659.058594 372.242188 L 659.058594 395.765625 C 659.058594 398.90625 661.699219 399.390625 663.46875 398.339844 C 670.582031 394.160156 692.03125 381.722656 692.03125 381.722656 C 694.910156 380.050781 696.699219 376.949219 696.699219 373.601562 L 696.699219 356.105469 C 696.699219 352.71875 694.890625 349.601562 691.957031 347.90625 L 635.609375 315.046875 C 634.121094 314.179688 632.484375 313.761719 630.828125 313.761719 Z M 179.160156 313.796875 C 177.503906 313.796875 175.851562 314.21875 174.382812 315.082031 L 118.035156 347.90625 C 115.097656 349.621094 113.292969 352.753906 113.292969 356.140625 L 113.292969 440.132812 C 113.292969 444.234375 117.730469 446.777344 121.269531 444.726562 L 146.261719 430.167969 C 149.140625 428.476562 150.929688 425.394531 150.929688 422.046875 L 150.929688 372.3125 L 179.160156 355.847656 L 207.390625 372.3125 L 207.390625 422.046875 C 207.390625 425.394531 209.179688 428.476562 212.058594 430.167969 L 237.050781 444.726562 C 240.589844 446.796875 245.027344 444.234375 245.027344 440.132812 L 245.027344 356.140625 C 245.027344 352.753906 243.222656 349.621094 240.285156 347.90625 L 183.9375 315.082031 C 182.472656 314.21875 180.816406 313.796875 179.160156 313.796875 Z M 480.273438 355.808594 L 508.503906 372.277344 L 508.503906 405.726562 L 480.273438 422.195312 L 452.042969 405.726562 L 452.042969 372.277344 Z M 630.828125 370.257812 L 614.691406 379.664062 L 614.691406 398.449219 L 630.828125 407.820312 L 646.964844 398.449219 L 646.964844 379.664062 Z M 403.230469 445.425781 C 401.292969 445.425781 399.335938 445.898438 397.644531 446.855469 L 344.714844 477.4375 C 341.230469 479.359375 339.125 483.136719 339.125 487.070312 L 339.125 548.160156 C 339.125 552.09375 341.324219 555.796875 344.714844 557.789062 L 358.644531 565.730469 C 365.324219 569.023438 367.78125 569.039062 370.8125 569.039062 C 380.785156 569.039062 386.46875 563.074219 386.46875 552.535156 L 386.46875 492.179688 C 386.46875 491.257812 385.753906 490.597656 384.925781 490.597656 L 378.234375 490.597656 C 377.3125 490.597656 376.65625 491.351562 376.65625 492.179688 L 376.65625 552.535156 C 376.65625 557.105469 371.824219 561.796875 363.9375 557.863281 L 349.457031 549.519531 C 348.984375 549.238281 348.648438 548.667969 348.648438 548.121094 L 348.648438 487.03125 C 348.648438 486.488281 348.910156 485.84375 349.457031 485.5625 L 402.386719 455.054688 C 402.949219 454.773438 403.585938 454.773438 404.039062 455.054688 L 457.007812 485.5625 C 457.550781 485.84375 457.816406 486.394531 457.816406 487.03125 L 457.816406 548.121094 C 457.816406 548.761719 457.457031 549.3125 457.007812 549.59375 L 404.039062 580.210938 C 403.570312 580.492188 402.835938 580.492188 402.386719 580.210938 L 388.859375 572.160156 C 388.5 571.972656 387.929688 571.863281 387.570312 572.050781 C 383.828125 574.253906 383.078125 574.542969 379.597656 575.726562 C 378.671875 576.007812 377.421875 576.574219 380.074219 578.042969 L 397.644531 588.480469 C 399.394531 589.402344 401.3125 589.953125 403.230469 589.953125 C 405.246094 589.953125 407.199219 589.40625 408.746094 588.410156 L 461.675781 557.789062 C 465.15625 555.871094 467.261719 552.09375 467.261719 548.160156 L 467.261719 487.070312 C 467.261719 483.136719 465.0625 479.453125 461.675781 477.4375 L 408.746094 446.855469 C 407.097656 445.898438 405.167969 445.425781 403.230469 445.425781 Z M 485.785156 473.617188 C 480.386719 473.617188 475.640625 477.984375 475.640625 483.761719 C 475.640625 489.351562 480.199219 493.941406 485.785156 493.941406 C 491.375 493.941406 495.929688 489.351562 495.929688 483.761719 C 495.929688 477.984375 491.28125 473.523438 485.785156 473.617188 Z M 485.675781 475.234375 C 490.457031 475.234375 494.3125 479 494.3125 483.761719 C 494.3125 488.429688 490.4375 492.285156 485.675781 492.398438 C 480.992188 492.398438 477.1875 488.523438 477.1875 483.761719 C 477.1875 479 481.007812 475.234375 485.675781 475.234375 Z M 481.964844 477.992188 L 481.964844 489.421875 L 484.132812 489.421875 L 484.132812 484.863281 L 486.152344 484.863281 C 486.980469 484.863281 487.179688 485.214844 487.367188 485.855469 C 487.367188 485.949219 487.714844 488.914062 487.808594 489.457031 L 490.160156 489.457031 C 489.898438 488.914062 489.703125 487.347656 489.609375 486.40625 C 489.347656 484.941406 489.261719 483.929688 487.699219 483.835938 C 488.527344 483.550781 489.902344 483.113281 489.902344 481.003906 C 489.902344 477.976562 487.269531 477.992188 485.898438 477.992188 Z M 484.132812 479.828125 L 485.96875 479.828125 C 486.535156 479.828125 487.625 479.808594 487.625 481.371094 C 487.625 482.011719 487.347656 483.046875 485.859375 483.027344 L 484.132812 483.027344 Z M 417.417969 489.164062 C 402.308594 489.164062 393.34375 495.605469 393.34375 506.21875 C 393.34375 517.851562 402.320312 520.960938 416.792969 522.429688 C 434.109375 524.160156 435.464844 526.652344 435.464844 530.039062 C 435.464844 535.984375 430.691406 538.457031 419.515625 538.457031 C 405.492188 538.457031 402.410156 534.980469 401.394531 528.015625 C 401.296875 527.28125 400.640625 526.730469 399.8125 526.730469 L 392.9375 526.730469 C 392.109375 526.730469 391.394531 527.386719 391.394531 528.3125 C 391.394531 537.195312 396.238281 547.828125 419.402344 547.828125 C 436.398438 547.808594 446.015625 541.226562 446.015625 529.671875 C 446.015625 518.226562 438.3125 515.183594 422.011719 512.984375 C 405.527344 510.78125 403.890625 509.671875 403.890625 505.816406 C 403.890625 502.617188 405.242188 498.425781 417.417969 498.425781 C 428.316406 498.425781 432.375 500.808594 434.03125 508.132812 C 434.222656 508.863281 434.734375 509.308594 435.464844 509.308594 L 442.339844 509.308594 C 442.792969 509.308594 443.179688 509.128906 443.441406 508.867188 C 443.726562 508.507812 443.90625 508.140625 443.808594 507.691406 C 442.71875 495.042969 434.375 489.164062 417.417969 489.164062 Z M 417.417969 489.164062 " fill-opacity="1" fill-rule="nonzero"/></g></svg>