<svg xmlns="http://www.w3.org/2000/svg" xmlns:xlink="http://www.w3.org/1999/xlink" width="1080" zoomAndPan="magnify" viewBox="0 0 810 809.999993" height="1080" preserveAspectRatio="xMidYMid meet" version="1.0"><defs><clipPath id="1287d44009"><path d="M 81 229.636719 L 729 229.636719 L 729 580.636719 L 81 580.636719 Z M 81 229.636719 " clip-rule="nonzero"/></clipPath></defs><g clip-path="url(#1287d44009)"><path fill="#ffffff" d="M 405 229.636719 C 317.425781 229.636719 238.019531 247.972656 179.371094 278.585938 C 120.726562 309.199219 81.257812 353.304688 81.257812 404.996094 C 81.257812 456.683594 120.726562 500.789062 179.371094 531.402344 C 238.019531 562.015625 317.425781 580.355469 405 580.355469 C 492.574219 580.355469 571.980469 562.015625 630.628906 531.402344 C 689.273438 500.789062 728.742188 456.683594 728.742188 404.996094 C 728.742188 353.304688 689.273438 309.199219 630.628906 278.585938 C 571.980469 247.972656 492.574219 229.636719 405 229.636719 Z M 405 256.613281 C 488.78125 256.613281 564.5 274.476562 618.140625 302.507812 C 671.78125 330.488281 701.761719 367.265625 701.761719 404.996094 C 701.761719 442.722656 671.78125 479.5 618.140625 507.480469 C 564.5 535.511719 488.78125 553.375 405 553.375 C 321.21875 553.375 245.5 535.511719 191.859375 507.480469 C 138.21875 479.5 108.238281 442.722656 108.238281 404.996094 C 108.238281 367.265625 138.21875 330.488281 191.859375 302.507812 C 245.5 274.476562 321.21875 256.613281 405 256.613281 Z M 371.382812 283.589844 L 337.554688 445.460938 L 372.964844 445.460938 L 390.035156 364.527344 L 418.332031 364.527344 C 427.339844 364.527344 433.347656 366.003906 436.140625 369.003906 C 438.882812 372.007812 439.460938 377.699219 437.878906 385.867188 L 424.96875 445.460938 L 460.90625 445.460938 L 474.921875 381.019531 C 477.925781 365.582031 475.660156 354.25 468.179688 347.347656 C 460.539062 340.339844 447.101562 337.546875 427.078125 337.546875 L 395.515625 337.546875 L 406.738281 283.589844 Z M 216.152344 337.546875 L 188.804688 485.929688 L 224.476562 485.929688 L 231.589844 445.460938 L 253.828125 445.460938 C 300.300781 445.460938 325.59375 434.710938 335.023438 394.824219 C 343.140625 360.523438 322.378906 337.546875 288.074219 337.546875 Z M 499.425781 337.546875 L 472.078125 485.929688 L 507.75 485.929688 L 514.863281 445.460938 L 537.097656 445.460938 C 583.574219 445.460938 608.867188 434.710938 618.296875 394.824219 C 626.414062 360.523438 605.652344 337.546875 571.347656 337.546875 Z M 246.816406 364.527344 L 274.585938 364.527344 C 297.667969 364.527344 302.515625 374.90625 301.300781 386.445312 C 298.191406 416.21875 279.644531 418.484375 259.726562 418.484375 L 236.597656 418.484375 Z M 530.089844 364.527344 L 557.859375 364.527344 C 580.9375 364.527344 585.785156 374.90625 584.574219 386.445312 C 581.464844 416.21875 562.917969 418.484375 543 418.484375 L 519.867188 418.484375 Z M 530.089844 364.527344 " fill-opacity="1" fill-rule="nonzero"/></g></svg>