<svg xmlns="http://www.w3.org/2000/svg" xmlns:xlink="http://www.w3.org/1999/xlink" width="1080" zoomAndPan="magnify" viewBox="0 0 810 809.999993" height="1080" preserveAspectRatio="xMidYMid meet" version="1.0"><defs><g/></defs><path fill="#ffffff" d="M 505.984375 126.382812 C 497.742188 126.105469 489.117188 127.539062 480.46875 130.34375 C 463.171875 135.953125 445.046875 146.878906 426.445312 162.011719 C 419.15625 167.941406 411.800781 174.71875 404.421875 181.910156 C 397.203125 174.902344 390 168.304688 382.871094 162.507812 C 364.285156 147.386719 346.207031 136.457031 328.953125 130.859375 C 311.695312 125.265625 294.523438 125.09375 280.421875 133.234375 C 266.316406 141.375 257.882812 156.324219 254.101562 174.066406 C 250.316406 191.808594 250.734375 212.9375 254.535156 236.59375 C 255.855469 244.808594 257.738281 253.429688 259.882812 262.210938 C 251.824219 264.652344 243.996094 267.21875 236.742188 270.054688 C 214.839844 278.609375 196.71875 288.839844 183.523438 301.019531 C 170.328125 313.195312 161.808594 327.972656 161.808594 344.203125 C 161.808594 360.429688 170.328125 375.1875 183.523438 387.367188 C 196.71875 399.542969 214.839844 409.796875 236.742188 418.351562 C 244.5 421.382812 252.902344 424.109375 261.574219 426.691406 C 258.453125 438.347656 255.925781 449.65625 254.203125 460.378906 C 250.402344 484.054688 250 505.183594 253.792969 522.96875 C 257.582031 540.75 266.019531 555.78125 280.195312 563.964844 C 294.367188 572.148438 311.613281 571.945312 328.910156 566.339844 C 346.207031 560.730469 364.3125 549.824219 382.910156 534.691406 C 390.132812 528.816406 397.441406 522.117188 404.75 515 C 412.101562 522.160156 419.4375 528.890625 426.695312 534.796875 C 445.28125 549.914062 463.375 560.824219 480.632812 566.421875 C 497.890625 572.015625 515.0625 572.1875 529.164062 564.046875 C 543.265625 555.90625 551.679688 540.957031 555.464844 523.214844 C 559.246094 505.472656 558.828125 484.363281 555.03125 460.710938 C 553.300781 449.957031 550.773438 438.609375 547.640625 426.917969 C 556.597656 424.273438 565.265625 421.472656 573.257812 418.351562 C 595.15625 409.796875 613.277344 399.542969 626.472656 387.367188 C 639.667969 375.1875 648.191406 360.429688 648.191406 344.203125 C 648.191406 327.972656 639.667969 313.195312 626.472656 301.019531 C 613.277344 288.839844 595.15625 278.609375 573.257812 270.054688 C 565.894531 267.179688 557.949219 264.578125 549.765625 262.105469 C 551.925781 253.273438 553.847656 244.589844 555.175781 236.324219 C 558.976562 212.648438 559.378906 191.496094 555.585938 173.714844 C 551.796875 155.933594 543.335938 140.921875 529.164062 132.738281 C 522.078125 128.648438 514.222656 126.660156 505.984375 126.382812 Z M 505.011719 147.890625 C 510.183594 148.03125 514.59375 149.261719 518.367188 151.441406 C 525.914062 155.796875 531.492188 164.277344 534.46875 178.234375 C 537.445312 192.191406 537.34375 211.050781 533.828125 232.917969 C 532.628906 240.40625 530.878906 248.339844 528.894531 256.472656 C 507.277344 251.269531 483.585938 247.40625 458.339844 245.136719 C 445.664062 227.578125 432.640625 211.582031 419.511719 197.390625 C 426.457031 190.613281 433.355469 184.273438 440.089844 178.792969 C 457.273438 164.816406 473.539062 155.304688 487.117188 150.90625 C 493.902344 148.703125 499.839844 147.75 505.011719 147.890625 Z M 304.449219 147.953125 C 309.648438 147.808594 315.601562 148.761719 322.40625 150.964844 C 336.023438 155.378906 352.316406 164.886719 369.515625 178.875 C 376.113281 184.246094 382.859375 190.464844 389.660156 197.082031 C 376.433594 211.390625 363.300781 227.523438 350.542969 245.242188 C 325.402344 247.550781 301.808594 251.433594 280.296875 256.65625 C 278.328125 248.570312 276.582031 240.675781 275.382812 233.226562 C 271.867188 211.339844 271.78125 192.480469 274.765625 178.484375 C 277.75 164.488281 283.375 155.941406 290.988281 151.542969 C 294.796875 149.347656 299.246094 148.097656 304.449219 147.953125 Z M 404.75 212.605469 C 413.359375 221.976562 421.972656 232.226562 430.511719 243.261719 C 422.121094 242.910156 413.625 242.703125 405 242.703125 C 396.199219 242.703125 387.542969 242.917969 378.988281 243.28125 C 387.53125 232.238281 396.140625 221.980469 404.75 212.605469 Z M 405 264.046875 C 419.371094 264.046875 433.378906 264.636719 447.007812 265.636719 C 456.382812 279.101562 465.546875 293.390625 474.277344 308.511719 C 481.945312 321.796875 488.890625 335.066406 495.207031 348.164062 C 488.824219 361.441406 481.765625 374.886719 473.988281 388.355469 C 467.140625 400.214844 459.992188 411.476562 452.726562 422.335938 C 437.332031 423.621094 421.382812 424.335938 405 424.335938 C 388.21875 424.335938 371.914062 423.578125 356.179688 422.230469 C 349.035156 411.53125 342.003906 400.4375 335.269531 388.769531 C 327.507812 375.332031 320.484375 361.910156 314.109375 348.660156 C 320.511719 335.339844 327.566406 321.84375 335.371094 308.324219 C 344.054688 293.285156 353.191406 279.078125 362.515625 265.679688 C 376.289062 264.65625 390.460938 264.046875 405 264.046875 Z M 474.214844 268.277344 C 491.636719 270.453125 507.996094 273.472656 523.21875 277.09375 C 518.703125 291.902344 513.136719 307.371094 506.394531 323.332031 C 502.019531 314.894531 497.484375 306.425781 492.585938 297.941406 C 486.648438 287.660156 480.464844 277.855469 474.214844 268.277344 Z M 334.648438 268.445312 C 328.527344 277.84375 322.507812 287.457031 316.691406 297.53125 C 311.726562 306.125 307.101562 314.703125 302.671875 323.25 C 295.988281 307.382812 290.457031 292.003906 285.972656 277.277344 C 301.085938 273.648438 317.347656 270.644531 334.648438 268.445312 Z M 544.128906 282.707031 C 551.621094 284.976562 558.859375 287.339844 565.496094 289.933594 C 585.683594 297.816406 601.652344 307.15625 612.003906 316.707031 C 622.355469 326.257812 626.84375 335.367188 626.84375 344.203125 C 626.84375 353.039062 622.355469 362.148438 612.003906 371.699219 C 601.652344 381.25 585.683594 390.585938 565.496094 398.472656 C 558.121094 401.351562 550.015625 403.964844 541.589844 406.441406 C 535.582031 387.851562 527.910156 368.457031 518.78125 348.660156 C 529.277344 325.933594 537.757812 303.769531 544.128906 282.707031 Z M 265.515625 282.8125 C 271.816406 303.664062 280.1875 325.605469 290.535156 348.105469 C 281.347656 368.015625 273.636719 387.519531 267.601562 406.214844 C 259.472656 403.804688 251.644531 401.261719 244.503906 398.472656 C 224.3125 390.585938 208.34375 381.25 197.996094 371.699219 C 187.644531 362.148438 183.152344 353.039062 183.152344 344.203125 C 183.152344 335.367188 187.644531 326.257812 197.996094 316.707031 C 208.34375 307.15625 224.3125 297.816406 244.503906 289.933594 C 251.039062 287.378906 258.152344 285.046875 265.515625 282.8125 Z M 405 295.652344 C 375.9375 295.652344 352.152344 319.4375 352.152344 348.496094 C 352.152344 377.558594 375.9375 401.339844 405 401.339844 C 434.058594 401.339844 457.84375 377.558594 457.84375 348.496094 C 457.84375 319.4375 434.058594 295.652344 405 295.652344 Z M 302.921875 373.496094 C 307.367188 382.082031 311.992188 390.703125 316.980469 399.339844 C 320.878906 406.097656 324.867188 412.675781 328.910156 419.136719 C 314.714844 417.167969 301.222656 414.675781 288.554688 411.726562 C 292.582031 399.382812 297.402344 386.574219 302.921875 373.496094 Z M 506.664062 373.496094 C 512.203125 386.605469 517.027344 399.4375 521.074219 411.808594 C 508.363281 414.753906 494.828125 417.238281 480.59375 419.199219 C 484.691406 412.660156 488.738281 405.996094 492.6875 399.152344 C 497.640625 390.578125 502.246094 382.019531 506.664062 373.496094 Z M 282.464844 432.242188 C 301.59375 436.773438 322.324219 440.253906 344.308594 442.523438 C 358.984375 463.75 374.273438 482.824219 389.660156 499.496094 C 382.78125 506.207031 375.960938 512.503906 369.289062 517.929688 C 352.105469 531.90625 335.816406 541.398438 322.242188 545.796875 C 308.667969 550.199219 298.535156 549.621094 290.988281 545.261719 C 283.441406 540.90625 277.886719 532.425781 274.910156 518.46875 C 271.933594 504.511719 272.015625 485.675781 275.527344 463.804688 C 277.121094 453.886719 279.503906 443.261719 282.464844 432.242188 Z M 527.183594 432.324219 C 530.167969 443.410156 532.558594 454.074219 534.160156 464.054688 C 537.675781 485.941406 537.765625 504.800781 534.78125 518.796875 C 531.792969 532.796875 526.210938 541.359375 518.59375 545.757812 C 510.980469 550.15625 500.75 550.730469 487.136719 546.316406 C 473.523438 541.902344 457.226562 532.394531 440.03125 518.40625 C 433.308594 512.9375 426.441406 506.589844 419.511719 499.828125 C 435 483.089844 450.398438 463.917969 465.171875 442.566406 C 487.210938 440.3125 508.003906 436.851562 527.183594 432.324219 Z M 371.886719 444.691406 C 382.738281 445.28125 393.734375 445.683594 405 445.683594 C 415.890625 445.683594 426.527344 445.304688 437.035156 444.753906 C 426.296875 459.246094 415.347656 472.417969 404.441406 484.285156 C 393.542969 472.394531 382.617188 459.195312 371.886719 444.691406 Z M 371.886719 444.691406 " fill-opacity="1" fill-rule="evenodd"/><g fill="#ffffff" fill-opacity="1"><g transform="translate(109.374982, 658.560467)"><g><path d="M 4.6875 -64.34375 L 27.6875 -64.34375 C 33.875 -64.34375 38.914062 -62.691406 42.8125 -59.390625 C 46.71875 -56.085938 48.671875 -51.367188 48.671875 -45.234375 C 48.671875 -40.503906 47.488281 -36.539062 45.125 -33.34375 C 42.757812 -30.144531 39.546875 -27.894531 35.484375 -26.59375 L 57.640625 0 L 39 0 L 19.34375 -25.421875 L 19.34375 0 L 4.6875 0 Z M 19.34375 -35.796875 L 21.0625 -35.796875 C 22.414062 -35.796875 23.554688 -35.820312 24.484375 -35.875 C 25.421875 -35.925781 26.488281 -36.109375 27.6875 -36.421875 C 28.882812 -36.734375 29.847656 -37.175781 30.578125 -37.75 C 31.304688 -38.320312 31.929688 -39.15625 32.453125 -40.25 C 32.972656 -41.34375 33.234375 -42.664062 33.234375 -44.21875 C 33.234375 -45.78125 32.972656 -47.109375 32.453125 -48.203125 C 31.929688 -49.296875 31.304688 -50.128906 30.578125 -50.703125 C 29.847656 -51.273438 28.882812 -51.71875 27.6875 -52.03125 C 26.488281 -52.34375 25.421875 -52.523438 24.484375 -52.578125 C 23.554688 -52.628906 22.414062 -52.65625 21.0625 -52.65625 L 19.34375 -52.65625 Z M 19.34375 -35.796875 "/></g></g></g><g fill="#ffffff" fill-opacity="1"><g transform="translate(165.223029, 658.560467)"><g><path d="M 41.5 -64.34375 L 41.5 -51.484375 L 19.34375 -51.484375 L 19.34375 -38.6875 L 40.5625 -38.6875 L 40.5625 -25.8125 L 19.34375 -25.8125 L 19.34375 -12.875 L 41.5 -12.875 L 41.5 0 L 4.6875 0 L 4.6875 -64.34375 Z M 41.5 -64.34375 "/></g></g></g><g fill="#ffffff" fill-opacity="1"><g transform="translate(210.463066, 658.560467)"><g><path d="M 37.359375 -64.34375 L 63.34375 0 L 47.578125 0 L 42.828125 -12.875 L 18.328125 -12.875 L 13.578125 0 L -2.1875 0 L 23.796875 -64.34375 Z M 37.828125 -25.734375 L 30.65625 -44.453125 L 30.5 -44.453125 L 23.328125 -25.734375 Z M 37.828125 -25.734375 "/></g></g></g><g fill="#ffffff" fill-opacity="1"><g transform="translate(271.615117, 658.560467)"><g><path d="M 38.921875 -13.265625 C 41.160156 -13.265625 43.332031 -13.597656 45.4375 -14.265625 C 47.539062 -14.941406 49.085938 -15.59375 50.078125 -16.21875 L 51.5625 -17.234375 L 57.796875 -4.765625 C 57.585938 -4.609375 57.300781 -4.398438 56.9375 -4.140625 C 56.570312 -3.878906 55.726562 -3.394531 54.40625 -2.6875 C 53.082031 -1.988281 51.664062 -1.378906 50.15625 -0.859375 C 48.644531 -0.335938 46.664062 0.128906 44.21875 0.546875 C 41.78125 0.960938 39.257812 1.171875 36.65625 1.171875 C 30.675781 1.171875 25.007812 -0.296875 19.65625 -3.234375 C 14.300781 -6.171875 9.984375 -10.210938 6.703125 -15.359375 C 3.429688 -20.515625 1.796875 -26.082031 1.796875 -32.0625 C 1.796875 -36.582031 2.753906 -40.921875 4.671875 -45.078125 C 6.597656 -49.242188 9.160156 -52.804688 12.359375 -55.765625 C 15.554688 -58.734375 19.285156 -61.097656 23.546875 -62.859375 C 27.816406 -64.628906 32.1875 -65.515625 36.65625 -65.515625 C 40.820312 -65.515625 44.660156 -65.019531 48.171875 -64.03125 C 51.679688 -63.050781 54.160156 -62.066406 55.609375 -61.078125 L 57.796875 -59.59375 L 51.5625 -47.109375 C 51.195312 -47.421875 50.648438 -47.796875 49.921875 -48.234375 C 49.191406 -48.679688 47.734375 -49.269531 45.546875 -50 C 43.367188 -50.726562 41.160156 -51.09375 38.921875 -51.09375 C 35.390625 -51.09375 32.21875 -50.519531 29.40625 -49.375 C 26.59375 -48.226562 24.367188 -46.71875 22.734375 -44.84375 C 21.097656 -42.976562 19.847656 -40.960938 18.984375 -38.796875 C 18.128906 -36.640625 17.703125 -34.445312 17.703125 -32.21875 C 17.703125 -27.320312 19.535156 -22.9375 23.203125 -19.0625 C 26.867188 -15.195312 32.109375 -13.265625 38.921875 -13.265625 Z M 38.921875 -13.265625 "/></g></g></g><g fill="#ffffff" fill-opacity="1"><g transform="translate(330.349169, 658.560467)"><g><path d="M 0.625 -51.484375 L 0.625 -64.34375 L 45.859375 -64.34375 L 45.859375 -51.484375 L 30.578125 -51.484375 L 30.578125 0 L 15.90625 0 L 15.90625 -51.484375 Z M 0.625 -51.484375 "/></g></g></g><g fill="#ffffff" fill-opacity="1"><g transform="translate(376.837219, 658.560467)"><g/></g></g><g fill="#ffffff" fill-opacity="1"><g transform="translate(398.13124, 658.560467)"><g><path d="M 19.34375 -39.9375 L 19.34375 0 L 4.6875 0 L 4.6875 -64.34375 L 19.34375 -64.34375 L 44.921875 -24.40625 L 45.078125 -24.40625 L 45.078125 -64.34375 L 59.75 -64.34375 L 59.75 0 L 45.078125 0 L 19.5 -39.9375 Z M 19.34375 -39.9375 "/></g></g></g><g fill="#ffffff" fill-opacity="1"><g transform="translate(462.559299, 658.560467)"><g><path d="M 37.359375 -64.34375 L 63.34375 0 L 47.578125 0 L 42.828125 -12.875 L 18.328125 -12.875 L 13.578125 0 L -2.1875 0 L 23.796875 -64.34375 Z M 37.828125 -25.734375 L 30.65625 -44.453125 L 30.5 -44.453125 L 23.328125 -25.734375 Z M 37.828125 -25.734375 "/></g></g></g><g fill="#ffffff" fill-opacity="1"><g transform="translate(523.711326, 658.560467)"><g><path d="M 0.625 -51.484375 L 0.625 -64.34375 L 45.859375 -64.34375 L 45.859375 -51.484375 L 30.578125 -51.484375 L 30.578125 0 L 15.90625 0 L 15.90625 -51.484375 Z M 0.625 -51.484375 "/></g></g></g><g fill="#ffffff" fill-opacity="1"><g transform="translate(570.199377, 658.560467)"><g><path d="M 19.34375 -64.34375 L 19.34375 0 L 4.6875 0 L 4.6875 -64.34375 Z M 19.34375 -64.34375 "/></g></g></g><g fill="#ffffff" fill-opacity="1"><g transform="translate(594.223408, 658.560467)"><g><path d="M 24.796875 0 L -2.1875 -64.34375 L 14.359375 -64.34375 L 30.578125 -22.078125 L 46.796875 -64.34375 L 63.34375 -64.34375 L 36.34375 0 Z M 24.796875 0 "/></g></g></g><g fill="#ffffff" fill-opacity="1"><g transform="translate(655.375459, 658.560467)"><g><path d="M 41.5 -64.34375 L 41.5 -51.484375 L 19.34375 -51.484375 L 19.34375 -38.6875 L 40.5625 -38.6875 L 40.5625 -25.8125 L 19.34375 -25.8125 L 19.34375 -12.875 L 41.5 -12.875 L 41.5 0 L 4.6875 0 L 4.6875 -64.34375 Z M 41.5 -64.34375 "/></g></g></g></svg>