<svg xmlns="http://www.w3.org/2000/svg" xmlns:xlink="http://www.w3.org/1999/xlink" width="1080" zoomAndPan="magnify" viewBox="0 0 810 809.999993" height="1080" preserveAspectRatio="xMidYMid meet" version="1.0"><defs><clipPath id="86cc8775f4"><path d="M 92.5 92.5 L 717.25 92.5 L 717.25 717.25 L 92.5 717.25 Z M 92.5 92.5 " clip-rule="nonzero"/></clipPath></defs><g clip-path="url(#86cc8775f4)"><path fill="#ffffff" d="M 92.5 161.945312 L 92.5 648.050781 C 92.5 686.417969 123.578125 717.496094 161.945312 717.496094 L 648.050781 717.496094 C 686.417969 717.496094 717.496094 686.417969 717.496094 648.050781 L 717.496094 161.945312 C 717.496094 123.578125 686.417969 92.5 648.050781 92.5 L 161.945312 92.5 C 123.578125 92.5 92.5 123.578125 92.5 161.945312 Z M 462.84375 420.65625 L 389.304688 420.65625 L 389.304688 648.050781 L 330.035156 648.050781 L 330.035156 420.65625 L 258.019531 420.65625 L 258.019531 370.277344 L 462.84375 370.277344 Z M 474.371094 635.066406 L 474.371094 574.269531 C 474.371094 574.269531 507.566406 599.300781 547.425781 599.300781 C 587.289062 599.300781 585.726562 573.261719 585.726562 569.683594 C 585.726562 531.871094 472.84375 531.871094 472.84375 448.121094 C 472.84375 334.199219 637.324219 379.164062 637.324219 379.164062 L 635.273438 433.296875 C 635.273438 433.296875 607.707031 414.894531 576.523438 414.894531 C 545.378906 414.894531 534.128906 429.71875 534.128906 445.554688 C 534.128906 486.421875 648.050781 482.324219 648.050781 564.582031 C 648.050781 691.246094 474.371094 635.066406 474.371094 635.066406 Z M 474.371094 635.066406 " fill-opacity="1" fill-rule="nonzero"/></g></svg>