<svg xmlns="http://www.w3.org/2000/svg" xmlns:xlink="http://www.w3.org/1999/xlink" width="1080" zoomAndPan="magnify" viewBox="0 0 810 809.999993" height="1080" preserveAspectRatio="xMidYMid meet" version="1.0"><path fill="#ffffff" d="M 81 81 L 709.992188 81 L 709.992188 709.992188 L 81 709.992188 Z M 81 81 " fill-opacity="1" fill-rule="nonzero"/><path fill="#23272f" d="M 492.257812 551.816406 C 504.347656 571.457031 517.484375 590.273438 545.320312 590.273438 C 568.695312 590.273438 580.960938 578.65625 580.960938 562.582031 C 580.960938 543.34375 568.277344 536.511719 542.558594 525.3125 L 528.457031 519.304688 C 487.765625 502.039062 460.703125 480.410156 460.703125 434.722656 C 460.703125 392.613281 492.9375 360.570312 543.308594 360.570312 C 579.179688 360.570312 604.949219 372.992188 623.539062 405.523438 L 579.617188 433.601562 C 569.953125 416.339844 559.503906 409.542969 543.308594 409.542969 C 526.78125 409.542969 516.316406 419.972656 516.316406 433.601562 C 516.316406 450.445312 526.796875 457.257812 550.996094 467.691406 L 565.097656 473.699219 C 613.058594 494.125 640.105469 514.988281 640.105469 561.882812 C 640.105469 612.410156 600.199219 640.105469 546.628906 640.105469 C 494.230469 640.105469 464.476562 613.808594 447.914062 581.257812 Z M 289.824219 553.25 C 298.667969 569.082031 312.101562 581.257812 331.425781 581.257812 C 349.910156 581.257812 360.550781 573.957031 360.550781 545.5625 L 360.550781 360.550781 L 418.785156 360.550781 L 418.785156 554.507812 C 418.785156 613.335938 384.664062 640.105469 334.832031 640.105469 C 289.808594 640.105469 257.308594 609.597656 244.066406 581.257812 Z M 289.824219 553.25 " fill-opacity="1" fill-rule="nonzero"/></svg>