<svg xmlns="http://www.w3.org/2000/svg" xmlns:xlink="http://www.w3.org/1999/xlink" width="1080" zoomAndPan="magnify" viewBox="0 0 810 809.999993" height="1080" preserveAspectRatio="xMidYMid meet" version="1.0"><defs><clipPath id="97c83901b3"><path d="M 241 490 L 334 490 L 334 625.820312 L 241 625.820312 Z M 241 490 " clip-rule="nonzero"/></clipPath></defs><g clip-path="url(#97c83901b3)"><path fill="#ffffff" d="M 251.371094 612.335938 C 247.695312 612.335938 244.421875 612.109375 241.652344 611.683594 L 241.652344 623.898438 C 247.34375 626.164062 252.054688 627.296875 255.90625 627.296875 C 270.335938 627.296875 283.636719 618.484375 295.773438 600.777344 C 311.289062 577.859375 323.832031 541.0625 333.351562 490.492188 L 311.1875 490.492188 C 307.234375 521.542969 300.230469 550.304688 290.160156 576.597656 C 290.863281 571.335938 289.125 562.09375 284.996094 548.84375 L 266.6875 490.492188 L 243.765625 490.492188 L 269.304688 568.539062 C 273.160156 580.25 275.097656 588.058594 275.097656 591.886719 C 275.097656 597.402344 272.628906 602.390625 267.667969 606.847656 C 263.539062 610.472656 258.121094 612.335938 251.371094 612.335938 Z M 251.371094 612.335938 " fill-opacity="1" fill-rule="nonzero"/></g><path fill="#ffffff" d="M 577.523438 454.652344 L 577.523438 591.382812 L 643.757812 591.382812 L 643.757812 574.558594 L 599.8125 574.558594 L 599.8125 454.652344 Z M 577.523438 454.652344 " fill-opacity="1" fill-rule="nonzero"/><path fill="#ffffff" d="M 113.054688 482.332031 L 113.308594 482.332031 L 148.566406 591.382812 L 166.324219 591.382812 L 201.832031 482.332031 L 202.035156 482.332031 C 205.738281 516.457031 208.078125 552.75 208.835938 591.382812 L 232.257812 591.382812 C 231.148438 550.078125 227.574219 504.46875 221.476562 454.652344 L 193.898438 454.652344 L 159.976562 555.140625 L 159.773438 555.140625 L 126.152344 454.652344 L 97.1875 454.652344 C 91.699219 497.164062 88.25 542.777344 86.863281 591.382812 L 108.144531 591.382812 C 108.824219 551.390625 110.460938 515.046875 113.054688 482.332031 Z M 113.054688 482.332031 " fill-opacity="1" fill-rule="nonzero"/><path fill="#ffffff" d="M 557.296875 520.460938 C 557.296875 475.230469 539.214844 452.5625 503.023438 452.5625 C 485.292969 452.5625 471.441406 458.304688 461.46875 469.789062 C 450.636719 482.355469 445.199219 500.84375 445.199219 525.296875 C 445.199219 549.324219 449.984375 566.980469 459.65625 578.210938 C 468.46875 588.359375 481.742188 593.421875 499.523438 593.421875 C 506.171875 593.421875 512.265625 592.617188 517.78125 591.003906 L 551.152344 610.097656 L 560.21875 594.734375 L 560.144531 594.734375 L 534.554688 582.367188 C 536.824219 580.476562 539.015625 578.464844 540.976562 576.195312 C 551.882812 563.652344 557.296875 545.066406 557.296875 520.460938 Z M 501.816406 576.5 C 490.609375 576.5 482.421875 572.367188 477.183594 564.132812 L 477.234375 564.007812 C 471.566406 555.117188 468.746094 540.761719 468.746094 521.089844 C 468.746094 486.636719 479.425781 469.410156 500.730469 469.410156 C 511.890625 469.410156 520.125 473.542969 525.339844 481.777344 C 530.980469 490.71875 533.800781 504.921875 533.800781 524.390625 C 533.800781 559.097656 523.121094 576.5 501.816406 576.5 Z M 501.816406 576.5 " fill-opacity="1" fill-rule="nonzero"/><path fill="#ffffff" d="M 419.308594 524.691406 C 419.308594 524.691406 399.3125 513.433594 389.414062 508.121094 C 378.535156 502.175781 372.640625 495.199219 372.640625 487.117188 C 372.640625 481.828125 375.03125 477.519531 378.886719 474.144531 C 382.714844 470.722656 388.230469 469.058594 395.355469 469.058594 C 404.148438 469.058594 413.085938 470.972656 422.152344 474.75 L 427.519531 462.988281 C 416.941406 456.214844 405.152344 452.863281 392.257812 452.863281 C 379.667969 452.863281 369.464844 456.238281 361.535156 463.113281 C 353.648438 469.914062 349.695312 478.804688 349.695312 489.9375 C 349.695312 503.308594 354.984375 511.445312 365.613281 519.050781 C 365.613281 519.050781 385.132812 530.03125 394.902344 535.296875 C 405.429688 541.113281 411.222656 548.039062 411.222656 556.199219 C 411.222656 562.648438 408.402344 567.757812 403.667969 571.410156 C 398.882812 575.039062 392.308594 576.851562 383.949219 576.851562 C 374.957031 576.851562 365.007812 574.183594 353.976562 568.742188 L 348.007812 580.503906 C 360.828125 588.992188 373.949219 593.246094 387.625 593.246094 C 402.257812 593.246094 413.816406 589.542969 422.480469 582.113281 C 431.144531 574.710938 435.476562 565.164062 435.476562 553.53125 L 435.628906 553.605469 C 435.628906 540.28125 430.214844 532.25 419.308594 524.691406 Z M 419.308594 524.691406 " fill-opacity="1" fill-rule="nonzero"/><path fill="#ffffff" d="M 500.027344 265.132812 C 497.128906 265.132812 495.167969 265.484375 493.125 265.941406 L 493.125 266.265625 L 493.480469 266.265625 C 494.839844 268.835938 497.15625 270.726562 498.867188 273.015625 C 500.226562 275.660156 501.386719 278.304688 502.746094 280.925781 L 503.097656 280.546875 C 505.46875 278.910156 506.625 276.289062 506.625 272.3125 C 505.617188 271.152344 505.46875 269.996094 504.609375 268.859375 C 503.601562 267.199219 501.4375 266.394531 500.078125 265.082031 Z M 500.027344 265.132812 " fill-opacity="1" fill-rule="nonzero"/><path fill="#ffffff" d="M 683.628906 452.308594 C 678.742188 445.886719 672.671875 440.273438 666.125 435.613281 C 660.734375 432.011719 648.949219 426.949219 646.730469 420.90625 L 646.402344 420.550781 C 650.082031 420.222656 654.460938 418.914062 657.988281 417.933594 C 663.707031 416.445312 668.945312 416.773438 674.863281 415.3125 C 677.53125 414.660156 680.226562 413.828125 682.921875 412.996094 L 682.921875 411.511719 C 679.898438 408.539062 677.632812 404.507812 674.511719 401.738281 C 665.949219 394.433594 656.453125 387.359375 646.707031 381.386719 C 641.417969 378.0625 634.71875 375.949219 629.152344 373.128906 C 627.136719 372.144531 623.761719 371.640625 622.601562 369.980469 C 619.582031 366.378906 617.816406 361.566406 615.675781 357.261719 C 610.84375 348.167969 606.105469 338.09375 601.902344 328.5 C 598.878906 322.027344 597.039062 315.578125 593.339844 309.636719 C 575.960938 281.527344 557.148438 264.480469 528.210938 247.832031 C 521.988281 244.382812 514.535156 242.894531 506.652344 241.054688 C 502.445312 240.855469 498.238281 240.554688 494.058594 240.375 C 491.289062 239.21875 488.617188 236.070312 486.25 234.558594 C 476.679688 228.613281 451.898438 215.769531 444.847656 232.769531 C 440.3125 243.5 451.570312 254.078125 455.472656 259.515625 C 458.371094 263.296875 462.023438 267.625 464.035156 271.882812 C 465.222656 274.753906 465.546875 277.699219 466.730469 280.699219 C 469.402344 287.976562 471.945312 296.0625 475.472656 302.886719 C 477.308594 306.335938 479.324219 309.988281 481.691406 313.085938 C 483.050781 314.898438 485.367188 315.730469 485.898438 318.703125 C 483.53125 322.078125 483.378906 326.964844 482.019531 331.070312 C 475.976562 349.78125 478.34375 372.925781 486.90625 386.703125 C 489.601562 390.808594 496.023438 399.898438 504.609375 396.425781 C 512.167969 393.453125 510.503906 384.058594 512.667969 375.773438 C 513.171875 373.78125 512.847656 372.472656 513.878906 371.136719 L 513.878906 371.515625 C 516.246094 376.175781 518.613281 380.582031 520.78125 385.242188 C 525.96875 393.351562 535.035156 401.761719 542.613281 407.378906 C 546.644531 410.351562 549.84375 415.488281 554.878906 417.328125 L 554.878906 416.824219 L 554.503906 416.824219 C 553.417969 415.390625 551.984375 414.707031 550.625 413.523438 C 547.601562 410.554688 544.203125 406.925781 541.808594 403.628906 C 534.757812 394.308594 528.535156 384.082031 522.996094 373.503906 C 520.226562 368.316406 517.910156 362.726562 515.691406 357.613281 C 514.683594 355.648438 514.683594 352.675781 512.996094 351.671875 C 510.480469 355.273438 506.777344 358.417969 504.9375 362.878906 C 501.738281 370.003906 501.410156 378.746094 500.203125 387.859375 C 499.523438 388.039062 499.851562 387.859375 499.523438 388.214844 C 494.132812 386.929688 492.292969 381.4375 490.28125 376.832031 C 485.242188 365.09375 484.410156 346.230469 488.769531 332.679688 C 489.953125 329.230469 494.988281 318.300781 492.976562 314.976562 C 491.917969 311.828125 488.59375 310.039062 486.753906 307.496094 C 484.5625 304.421875 482.222656 300.441406 480.710938 296.941406 C 476.679688 287.699219 474.664062 277.449219 470.28125 268.207031 C 468.269531 263.925781 464.742188 259.441406 461.871094 255.511719 C 458.671875 251.054688 455.148438 247.933594 452.601562 242.644531 C 451.773438 240.828125 450.589844 237.832031 451.921875 235.867188 C 452.277344 234.535156 452.980469 234.003906 454.289062 233.652344 C 456.507812 231.863281 462.726562 234.207031 464.917969 235.1875 C 471.140625 237.65625 476.378906 239.972656 481.589844 243.449219 C 483.957031 245.085938 486.503906 248.210938 489.523438 249.039062 L 493.050781 249.039062 C 498.441406 250.199219 504.507812 249.394531 509.546875 250.851562 C 518.488281 253.675781 526.546875 257.78125 533.773438 262.238281 C 555.835938 275.988281 573.96875 295.480469 586.285156 318.753906 C 588.300781 322.554688 589.183594 326.058594 591.019531 330.011719 C 594.546875 338.171875 598.902344 346.40625 602.480469 354.289062 C 606.007812 362.070312 609.40625 370.03125 614.46875 376.476562 C 616.988281 379.929688 627.113281 381.742188 631.644531 383.554688 C 634.996094 385.039062 640.207031 386.402344 643.230469 388.214844 C 649.023438 391.664062 654.664062 395.644531 660.105469 399.445312 C 662.875 401.335938 671.261719 405.464844 671.765625 408.789062 C 658.289062 408.4375 647.839844 409.773438 639.101562 413.449219 C 636.582031 414.433594 632.550781 414.433594 632.199219 417.578125 C 633.585938 418.890625 633.785156 421.03125 634.96875 422.867188 C 636.984375 426.167969 640.460938 430.601562 643.683594 432.941406 C 647.210938 435.664062 650.734375 438.28125 654.4375 440.597656 C 660.984375 444.554688 668.414062 446.894531 674.835938 450.875 C 678.488281 453.191406 682.214844 456.136719 685.917969 458.605469 C 687.757812 459.839844 688.941406 462.082031 691.308594 462.863281 L 691.308594 462.382812 C 690.148438 460.898438 689.796875 458.757812 688.664062 457.09375 C 686.976562 455.433594 685.289062 453.949219 683.628906 452.308594 Z M 683.628906 452.308594 " fill-opacity="1" fill-rule="nonzero"/></svg>