<svg xmlns="http://www.w3.org/2000/svg" xmlns:xlink="http://www.w3.org/1999/xlink" width="1080" zoomAndPan="magnify" viewBox="0 0 810 809.999993" height="1080" preserveAspectRatio="xMidYMid meet" version="1.0"><defs><g/><clipPath id="2855fa7e6b"><path d="M 177 119.679688 L 635 119.679688 L 635 597 L 177 597 Z M 177 119.679688 " clip-rule="nonzero"/></clipPath></defs><path fill="#ffffff" d="M 603.820312 416.175781 L 603.902344 416.097656 L 603.78125 416.175781 Z M 603.820312 416.175781 " fill-opacity="1" fill-rule="nonzero"/><path fill="#ffffff" d="M 544.949219 412.398438 L 544.988281 412.4375 L 544.988281 412.460938 L 544.929688 412.480469 C 542.046875 413.53125 539.660156 413.96875 537.652344 414.863281 C 535.605469 415.679688 533.957031 417.171875 532.984375 419.078125 L 532.960938 419.117188 C 531.730469 421.402344 530.65625 425.457031 530.976562 432.355469 C 531.789062 432.953125 532.785156 433.410156 533.796875 433.726562 L 533.878906 433.746094 C 537.234375 434.78125 542.859375 435.457031 549.140625 435.355469 C 561.664062 435.21875 577.089844 432.257812 585.277344 428.398438 C 592.332031 425.042969 598.375 420.984375 603.761719 416.175781 C 576.414062 421.902344 560.96875 420.371094 551.488281 416.414062 C 549.023438 415.339844 546.855469 414.007812 544.949219 412.398438 Z M 544.949219 412.398438 " fill-opacity="1" fill-rule="nonzero"/><path fill="#ffffff" d="M 516.902344 202.1875 L 517.023438 202.367188 L 517.160156 202.523438 Z M 516.902344 202.1875 " fill-opacity="1" fill-rule="nonzero"/><path fill="#ffffff" d="M 412.292969 503.273438 C 412.273438 502.777344 412.292969 502.261719 412.273438 501.765625 C 412.273438 501.566406 412.253906 501.425781 412.253906 501.226562 Z M 412.292969 503.273438 " fill-opacity="1" fill-rule="nonzero"/><path fill="#ffffff" d="M 391.324219 415.558594 C 390.171875 414.984375 388.820312 414.566406 387.367188 414.367188 L 387.308594 414.367188 L 387.308594 414.328125 L 386.890625 414.328125 C 385.859375 414.425781 384.347656 414.785156 381.40625 418.0625 C 374.566406 425.816406 372.183594 430.6875 366.539062 435.238281 C 360.894531 439.769531 353.578125 442.195312 338.949219 445.234375 C 334.320312 446.1875 331.65625 447.242188 329.90625 448.097656 C 330.484375 448.574219 330.421875 448.695312 331.277344 449.152344 C 333.425781 450.34375 336.167969 451.398438 338.394531 451.972656 C 344.675781 453.5625 355.011719 455.410156 365.78125 453.5625 C 376.554688 451.695312 387.765625 446.46875 397.328125 432.890625 C 398.976562 430.546875 399.15625 427.089844 397.804688 423.371094 C 396.453125 419.65625 393.429688 416.453125 391.324219 415.558594 Z M 391.324219 415.558594 " fill-opacity="1" fill-rule="nonzero"/><path fill="#ffffff" d="M 471.585938 149.535156 L 470.453125 149.753906 C 470.828125 149.675781 471.246094 149.632812 471.625 149.554688 C 471.605469 149.554688 471.605469 149.535156 471.585938 149.535156 Z M 471.585938 149.535156 " fill-opacity="1" fill-rule="nonzero"/><path fill="#ffffff" d="M 526.878906 256.828125 C 513.542969 257.007812 506.070312 260.484375 502.132812 265.035156 C 496.570312 271.496094 496.050781 282.824219 499.511719 296.777344 C 502.949219 310.75 510.046875 326.375 516.722656 339.355469 C 520.0625 345.855469 523.304688 351.695312 525.90625 356.449219 C 528.53125 361.21875 530.457031 364.597656 531.632812 367.480469 C 532.703125 370.140625 533.917969 372.488281 535.128906 374.675781 C 540.296875 363.644531 541.210938 352.808594 540.695312 341.519531 C 540.019531 327.546875 536.800781 313.257812 537.277344 298.785156 C 537.8125 281.871094 541.113281 270.859375 541.390625 257.78125 C 537.039062 257.183594 531.988281 256.828125 526.878906 256.828125 Z M 529.34375 266.886719 L 529.324219 267.042969 C 529.324219 267.101562 529.324219 267.164062 529.324219 267.242188 C 529.324219 268.15625 529.066406 269.03125 528.609375 269.746094 L 528.628906 269.726562 C 528.011719 270.859375 527.296875 271.855469 526.464844 272.707031 C 524.515625 274.875 521.910156 276.386719 518.96875 276.902344 L 518.890625 276.921875 C 518.472656 276.980469 517.996094 277 517.5 277 C 514.996094 277 512.6875 276.207031 510.800781 274.855469 L 510.839844 274.875 C 509.867188 274.199219 509.011719 273.425781 508.316406 272.550781 L 508.296875 272.53125 C 507.679688 271.855469 507.242188 270.980469 507.0625 270.046875 L 507.0625 270.003906 C 507.0625 269.90625 507.042969 269.808594 507.042969 269.707031 C 507.042969 268.851562 507.363281 268.058594 507.898438 267.460938 C 508.535156 266.726562 509.289062 266.128906 510.164062 265.691406 L 510.203125 265.671875 C 512.09375 264.597656 514.636719 263.804688 517.519531 263.367188 C 518.59375 263.207031 519.664062 263.128906 520.660156 263.109375 L 520.660156 263.167969 L 521.632812 263.167969 C 522.925781 263.207031 524.117188 263.347656 525.171875 263.605469 C 526.226562 263.84375 527.140625 264.203125 527.875 264.699219 C 528.609375 265.195312 529.167969 265.949219 529.34375 266.886719 Z M 529.34375 266.886719 " fill-opacity="1" fill-rule="nonzero"/><path fill="#ffffff" d="M 308.140625 344.421875 C 308.140625 340.84375 308.417969 337.347656 308.9375 333.90625 L 308.898438 334.285156 C 310.925781 319.597656 311.203125 305.863281 310.964844 295.011719 C 310.726562 284.4375 309.96875 277.398438 309.96875 273.007812 C 309.96875 272.945312 309.96875 272.886719 309.96875 272.828125 C 309.96875 272.769531 309.96875 272.6875 309.96875 272.628906 L 309.96875 272.53125 L 309.949219 272.410156 L 309.949219 272.390625 C 309.949219 272.351562 309.949219 272.332031 309.949219 272.292969 C 309.949219 248.757812 314.085938 226.199219 321.578125 205.269531 C 327.082031 190.480469 335.273438 175.472656 347.535156 163.308594 C 335.472656 159.292969 314.085938 153.171875 290.910156 152.019531 C 288.683594 151.898438 286.078125 151.820312 283.476562 151.820312 L 283.453125 151.820312 L 283.453125 151.839844 C 280.96875 151.839844 278.464844 151.921875 276 152.058594 C 256.164062 153.210938 237.402344 159.035156 224.003906 173.425781 C 210.570312 187.816406 201.722656 211.410156 203.652344 250.46875 C 204.027344 257.859375 207.210938 278.570312 212.65625 303.179688 C 218.121094 327.785156 225.8125 356.746094 235.074219 382.328125 C 244.359375 407.90625 255.609375 430.167969 266.300781 440.703125 C 271.6875 445.972656 276.359375 448.097656 280.59375 447.917969 C 284.847656 447.71875 289.972656 445.234375 296.234375 437.621094 C 308.539062 422.636719 320.167969 409.378906 332.171875 396.5 L 331.773438 396.914062 C 317.265625 384.097656 308.140625 365.351562 308.140625 344.421875 Z M 308.140625 344.421875 " fill-opacity="1" fill-rule="nonzero"/><path fill="#ffffff" d="M 413.863281 150.847656 L 413.863281 150.808594 C 390.648438 150.867188 374.011719 157.960938 361.371094 168.597656 C 348.351562 179.589844 339.625 194.632812 333.882812 210.039062 C 327.0625 228.324219 324.738281 246.015625 323.804688 258.019531 L 324.0625 257.859375 C 331.078125 253.886719 340.28125 249.910156 350.140625 247.605469 C 360 245.300781 370.613281 244.601562 380.234375 248.378906 C 389.851562 252.15625 397.804688 261.042969 400.6875 274.515625 C 414.5 339.253906 396.390625 363.324219 389.714844 381.492188 C 387.585938 386.71875 385.382812 393.4375 383.53125 400.296875 L 383.214844 401.625 C 384.050781 401.429688 384.902344 401.1875 385.738281 401.109375 C 390.449219 400.710938 394.144531 402.300781 396.332031 403.257812 C 403.050781 406.078125 407.664062 412.003906 410.148438 418.761719 C 410.804688 420.527344 411.261719 422.4375 411.539062 424.40625 C 411.796875 425.082031 411.9375 425.875 411.9375 426.691406 C 411.9375 426.769531 411.9375 426.851562 411.9375 426.929688 C 411.617188 436.867188 411.417969 448.535156 411.417969 460.261719 C 411.417969 474.15625 411.695312 487.988281 412.214844 501.765625 C 412.671875 512.21875 413.328125 521.480469 414.140625 528.777344 C 414.996094 536.210938 416.1875 541.835938 416.945312 543.742188 C 419.449219 550.101562 423.125 558.429688 429.765625 564.097656 C 436.402344 569.742188 445.925781 573.515625 463.316406 569.742188 C 478.402344 566.460938 487.703125 561.910156 493.925781 555.371094 C 500.148438 548.832031 503.84375 539.726562 506.210938 525.792969 C 509.765625 504.925781 516.902344 444.402344 517.777344 433.011719 C 517.378906 424.425781 518.632812 417.824219 521.355469 412.796875 C 524.136719 407.628906 528.472656 404.46875 532.1875 402.757812 C 534.054688 401.90625 535.804688 401.328125 537.234375 400.910156 C 535.488281 398.386719 533.917969 396.28125 532.285156 394.234375 L 532.464844 394.453125 C 527.316406 388.171875 522.925781 380.957031 519.605469 373.183594 L 519.386719 372.605469 C 517.378906 368.453125 515.691406 365.3125 513.921875 362.230469 L 514.339844 363.007812 C 511.734375 358.238281 508.433594 352.273438 504.976562 345.574219 C 498.058594 332.160156 490.546875 315.898438 486.632812 300.058594 C 482.734375 284.238281 482.179688 267.859375 492.15625 256.3125 C 500.980469 246.054688 516.503906 241.800781 539.78125 244.1875 C 539.105469 242.097656 538.6875 240.371094 537.515625 237.585938 C 531.851562 224.269531 525.03125 212.78125 516.941406 202.367188 C 497.207031 176.882812 465.304688 151.660156 416.050781 150.847656 Z M 413.863281 150.847656 " fill-opacity="1" fill-rule="nonzero"/><path fill="#ffffff" d="M 323.527344 274.121094 L 323.566406 274.101562 L 323.625 274.039062 Z M 323.527344 274.121094 " fill-opacity="1" fill-rule="nonzero"/><path fill="#ffffff" d="M 450.335938 128.046875 C 450.675781 127.949219 451.03125 127.910156 451.351562 127.828125 L 451.75 127.710938 Z M 450.335938 128.046875 " fill-opacity="1" fill-rule="nonzero"/><path fill="#ffffff" d="M 352.742188 260.664062 L 352.941406 260.644531 L 353.101562 260.585938 Z M 352.742188 260.664062 " fill-opacity="1" fill-rule="nonzero"/><path fill="#ffffff" d="M 377.371094 376.820312 C 385.339844 355.078125 401.023438 339.214844 387.824219 277.320312 C 385.660156 267.183594 381.386719 263.089844 375.503906 260.78125 C 372.640625 259.730469 369.320312 259.113281 365.84375 259.113281 C 365.625 259.113281 365.386719 259.113281 365.167969 259.113281 L 365.207031 259.113281 C 360.972656 259.152344 356.878906 259.691406 352.941406 260.644531 C 344.59375 262.75 337.242188 265.730469 330.402344 269.546875 C 327.839844 270.960938 325.632812 272.429688 323.566406 274.082031 L 323.1875 274.4375 C 323.308594 277.339844 323.863281 284.375 324.101562 294.730469 C 324.339844 306.0625 324.0625 320.511719 321.894531 336.152344 C 317.203125 370.140625 341.574219 398.289062 370.195312 398.328125 C 371.886719 391.351562 374.628906 384.273438 377.371094 376.820312 Z M 360.457031 278.054688 C 359.523438 277.101562 358.765625 276.027344 358.148438 274.855469 L 358.109375 274.777344 C 357.59375 273.941406 357.296875 272.925781 357.296875 271.835938 C 357.296875 271.636719 357.316406 271.4375 357.335938 271.238281 L 357.335938 271.257812 C 357.632812 269.109375 359.382812 267.996094 361.070312 267.382812 C 362.640625 266.863281 364.390625 266.566406 366.261719 266.566406 C 366.539062 266.566406 366.816406 266.566406 367.132812 266.585938 L 367.113281 266.507812 C 368.148438 266.507812 369.261719 266.605469 370.375 266.765625 C 373.375 267.183594 376.058594 267.996094 378.085938 269.191406 C 379.101562 269.746094 379.972656 270.441406 380.671875 271.277344 L 380.691406 271.296875 C 381.367188 272.074219 381.761719 273.085938 381.761719 274.21875 C 381.761719 274.378906 381.761719 274.539062 381.742188 274.695312 L 381.742188 274.675781 C 381.542969 275.867188 381.007812 276.902344 380.273438 277.738281 C 379.457031 278.730469 378.542969 279.585938 377.511719 280.300781 L 377.46875 280.320312 C 375.460938 281.792969 372.9375 282.667969 370.214844 282.667969 C 369.679688 282.667969 369.140625 282.625 368.625 282.566406 L 368.683594 282.566406 C 365.386719 282.011719 362.5625 280.382812 360.457031 278.054688 Z M 360.457031 278.054688 " fill-opacity="1" fill-rule="nonzero"/><path fill="#ffffff" d="M 330.003906 269.746094 C 330.144531 269.667969 330.285156 269.628906 330.402344 269.546875 C 330.421875 269.546875 330.441406 269.527344 330.460938 269.507812 Z M 330.003906 269.746094 " fill-opacity="1" fill-rule="nonzero"/><path fill="#ffffff" d="M 527.535156 194.257812 C 536.144531 205.289062 543.597656 217.851562 549.339844 231.324219 L 549.757812 232.417969 C 551.925781 237.667969 553.375 242.097656 554.191406 245.539062 C 554.609375 247.265625 554.886719 248.71875 554.984375 250.226562 C 555.027344 250.984375 555.066406 251.757812 554.746094 253.089844 C 554.746094 253.148438 554.648438 253.289062 554.628906 253.347656 C 555.222656 270.761719 550.949219 282.566406 550.453125 299.183594 C 550.054688 311.230469 553.097656 325.382812 553.851562 340.824219 C 554.570312 355.335938 552.839844 371.277344 543.515625 386.917969 C 544.3125 387.871094 545.007812 388.828125 545.761719 389.78125 C 570.390625 350.523438 588.140625 307.09375 597.601562 270.066406 C 602.667969 250.128906 605.351562 232.0625 605.589844 217.75 C 605.789062 203.441406 603.144531 193.0625 599.808594 188.730469 C 573.449219 154.625 537.8125 145.9375 507.917969 145.699219 L 507.917969 145.71875 L 505.054688 145.71875 C 493.527344 145.898438 482.398438 147.230469 471.644531 149.554688 C 496.050781 160.527344 514.539062 177.421875 527.535156 194.257812 Z M 527.535156 194.257812 " fill-opacity="1" fill-rule="nonzero"/><g clip-path="url(#2855fa7e6b)"><path fill="#ffffff" d="M 417.144531 124.808594 L 416.945312 124.808594 C 393.808594 124.410156 373.953125 130.097656 357.910156 139.558594 C 342.128906 134.011719 309.394531 124.449219 274.867188 126.359375 C 250.835938 127.691406 224.601562 135.085938 205.160156 155.855469 C 185.78125 176.625 175.546875 208.765625 177.691406 252.496094 C 178.289062 264.558594 181.6875 284.238281 187.3125 309.71875 C 192.957031 335.199219 200.867188 365.035156 210.746094 392.246094 C 220.625 419.476562 231.4375 443.921875 248.351562 460.539062 C 256.800781 468.867188 268.429688 475.863281 282.125 475.289062 C 291.742188 474.890625 300.429688 470.617188 307.941406 464.316406 C 311.601562 469.1875 315.496094 471.3125 319.054688 473.28125 C 323.527344 475.765625 327.878906 477.453125 332.390625 478.566406 C 340.5 480.617188 354.375 483.359375 370.632812 480.554688 C 376.179688 479.621094 382 477.792969 387.804688 475.1875 C 388.023438 481.75 388.28125 488.167969 388.519531 494.667969 C 389.335938 515.257812 389.832031 534.28125 395.933594 550.957031 C 396.910156 553.679688 399.613281 567.714844 410.207031 580.097656 C 420.800781 592.5 441.589844 600.230469 465.242188 595.101562 C 481.941406 591.484375 503.148438 584.964844 517.261719 564.652344 C 531.195312 544.578125 537.476562 515.777344 538.726562 469.066406 C 539.046875 466.542969 539.421875 464.394531 539.800781 462.386719 L 543.121094 462.6875 L 543.515625 462.6875 C 561.328125 463.5 580.644531 460.9375 596.785156 453.34375 C 611.078125 446.648438 621.890625 439.867188 629.78125 427.84375 C 631.75 424.863281 633.894531 421.265625 634.492188 415.0625 C 635.085938 408.863281 631.570312 399.160156 625.726562 394.691406 C 614.039062 385.707031 606.703125 389.125 598.832031 390.773438 C 591.816406 392.425781 583.707031 393.457031 575.398438 393.675781 L 575.238281 393.675781 C 597.9375 354.976562 614.21875 313.871094 623.5 277.5 C 629.003906 256.03125 632.085938 236.234375 632.324219 218.921875 C 632.582031 201.609375 631.191406 186.285156 620.9375 173.027344 C 588.914062 131.605469 543.894531 120.15625 509.050781 119.761719 C 507.976562 119.738281 506.886719 119.71875 505.8125 119.738281 L 505.8125 119.679688 C 486.851562 119.839844 468.601562 122.703125 451.332031 127.808594 L 450.515625 128.089844 C 440.539062 126.21875 428.949219 125.027344 417.144531 124.808594 Z M 464.230469 137.46875 C 476.394531 134.46875 490.386719 132.660156 504.777344 132.480469 L 504.898438 132.480469 L 504.917969 132.402344 C 537.871094 132.082031 579.949219 141.445312 610.183594 180.542969 C 616.980469 189.328125 619.007812 202.167969 618.769531 217.988281 C 618.511719 233.789062 615.628906 252.714844 610.339844 273.445312 C 600.085938 313.59375 580.726562 360.402344 553.457031 402.402344 C 554.351562 403.058594 555.382812 403.632812 556.457031 404.070312 L 556.554688 404.109375 C 562.242188 406.496094 575.21875 408.542969 601.117188 403.15625 C 607.636719 401.765625 612.410156 400.832031 617.359375 404.648438 C 619.582031 406.554688 620.976562 409.378906 620.976562 412.539062 C 620.976562 412.738281 620.976562 412.9375 620.957031 413.136719 L 620.957031 413.113281 C 620.65625 415.640625 619.761719 417.90625 618.390625 419.792969 C 613.382812 427.40625 603.503906 434.621094 590.863281 440.5625 C 579.652344 445.851562 563.574219 448.613281 549.320312 448.773438 C 542.164062 448.851562 535.585938 448.296875 529.980469 446.527344 L 529.625 446.386719 C 527.457031 467.457031 522.488281 509.058594 519.25 528.039062 C 516.664062 543.34375 512.132812 555.507812 503.464844 564.613281 C 494.820312 573.714844 482.597656 579.203125 466.136719 582.78125 C 445.765625 587.210938 430.898438 582.441406 421.316406 574.273438 C 411.757812 566.125 407.382812 555.3125 404.742188 548.691406 C 402.933594 544.121094 401.996094 538.195312 401.082031 530.285156 C 400.167969 522.375 399.511719 512.695312 399.054688 501.785156 C 398.617188 490.691406 398.378906 477.652344 398.378906 464.554688 C 398.378906 460.242188 398.417969 455.949219 398.460938 451.636719 C 390.25 459.269531 379.875 464.632812 368.347656 466.683594 L 367.988281 466.742188 C 354.453125 469.066406 342.386719 466.78125 335.171875 464.953125 C 331.335938 463.980469 327.996094 462.605469 324.855469 460.898438 C 321.558594 459.109375 318.417969 457.0625 316.3125 453.066406 C 315.476562 451.535156 314.980469 449.6875 314.980469 447.738281 C 314.980469 446.964844 315.058594 446.1875 315.21875 445.472656 C 315.933594 442.808594 317.421875 440.542969 319.472656 438.953125 L 319.492188 438.933594 C 323.386719 435.734375 328.515625 433.945312 336.285156 432.316406 C 350.398438 429.375 355.328125 427.367188 358.328125 424.960938 C 360.875 422.894531 363.773438 418.71875 368.863281 412.597656 C 368.84375 412.417969 368.824219 412.121094 368.804688 411.84375 L 368.804688 411.785156 C 359.183594 411.503906 350.21875 408.902344 342.386719 404.507812 L 342.6875 404.667969 C 339.746094 407.808594 324.699219 423.90625 306.371094 446.25 C 298.660156 455.589844 290.132812 460.957031 281.148438 461.335938 C 272.164062 461.714844 264.035156 457.140625 257.117188 450.363281 C 243.304688 436.789062 232.292969 413.433594 222.691406 387.039062 C 213.113281 360.640625 205.320312 331.246094 199.777344 306.199219 C 194.210938 281.15625 190.949219 260.960938 190.472656 251.222656 C 188.40625 209.839844 197.964844 181.953125 214.363281 164.363281 C 230.78125 146.773438 253.28125 140.113281 275.207031 138.839844 C 314.582031 136.554688 351.949219 150.449219 359.523438 153.429688 C 374.109375 143.414062 392.894531 137.171875 416.328125 137.570312 C 428.136719 137.75 439.484375 139.320312 450.335938 142.121094 L 449.34375 141.902344 L 449.742188 141.722656 C 453.535156 140.292969 458.386719 138.839844 463.355469 137.648438 Z M 464.230469 137.46875 " fill-opacity="1" fill-rule="nonzero"/></g><g fill="#ffffff" fill-opacity="1"><g transform="translate(174.414912, 667.892554)"><g><path d="M 4.6875 -64.34375 L 28.15625 -64.34375 C 34.707031 -64.34375 40.007812 -62.648438 44.0625 -59.265625 C 48.125 -55.890625 50.15625 -50.976562 50.15625 -44.53125 C 50.15625 -38.082031 48.097656 -33.023438 43.984375 -29.359375 C 39.878906 -25.703125 34.601562 -23.875 28.15625 -23.875 L 19.34375 -23.875 L 19.34375 0 L 4.6875 0 Z M 19.34375 -35.5625 L 23.484375 -35.5625 C 26.753906 -35.5625 29.441406 -36.222656 31.546875 -37.546875 C 33.648438 -38.878906 34.703125 -41.050781 34.703125 -44.0625 C 34.703125 -47.132812 33.648438 -49.332031 31.546875 -50.65625 C 29.441406 -51.988281 26.753906 -52.65625 23.484375 -52.65625 L 19.34375 -52.65625 Z M 19.34375 -35.5625 "/></g></g></g><g fill="#ffffff" fill-opacity="1"><g transform="translate(226.362961, 667.892554)"><g><path d="M 8.453125 -4.75 C 4.015625 -8.707031 1.796875 -13.78125 1.796875 -19.96875 C 1.796875 -26.15625 4.109375 -31.238281 8.734375 -35.21875 C 13.359375 -39.195312 19.078125 -41.1875 25.890625 -41.1875 C 32.597656 -41.1875 38.253906 -39.179688 42.859375 -35.171875 C 47.460938 -31.171875 49.765625 -26.101562 49.765625 -19.96875 C 49.765625 -13.832031 47.515625 -8.773438 43.015625 -4.796875 C 38.515625 -0.816406 32.804688 1.171875 25.890625 1.171875 C 18.710938 1.171875 12.898438 -0.800781 8.453125 -4.75 Z M 19.140625 -26.75 C 17.347656 -24.988281 16.453125 -22.726562 16.453125 -19.96875 C 16.453125 -17.207031 17.3125 -14.957031 19.03125 -13.21875 C 20.75 -11.476562 23.007812 -10.609375 25.8125 -10.609375 C 28.519531 -10.609375 30.742188 -11.488281 32.484375 -13.25 C 34.222656 -15.019531 35.09375 -17.257812 35.09375 -19.96875 C 35.09375 -22.726562 34.195312 -24.988281 32.40625 -26.75 C 30.613281 -28.519531 28.414062 -29.40625 25.8125 -29.40625 C 23.164062 -29.40625 20.941406 -28.519531 19.140625 -26.75 Z M 19.140625 -26.75 "/></g></g></g><g fill="#ffffff" fill-opacity="1"><g transform="translate(277.921006, 667.892554)"><g><path d="M 22.078125 -41.1875 C 24.359375 -41.1875 26.617188 -40.925781 28.859375 -40.40625 C 31.097656 -39.882812 32.765625 -39.363281 33.859375 -38.84375 L 35.484375 -38.0625 L 30.96875 -29.015625 C 27.84375 -30.679688 24.878906 -31.515625 22.078125 -31.515625 C 20.515625 -31.515625 19.40625 -31.34375 18.75 -31 C 18.101562 -30.664062 17.78125 -30.03125 17.78125 -29.09375 C 17.78125 -28.882812 17.804688 -28.675781 17.859375 -28.46875 C 17.910156 -28.257812 18.015625 -28.0625 18.171875 -27.875 C 18.328125 -27.695312 18.46875 -27.539062 18.59375 -27.40625 C 18.726562 -27.28125 18.953125 -27.140625 19.265625 -26.984375 C 19.578125 -26.828125 19.820312 -26.707031 20 -26.625 C 20.1875 -26.550781 20.488281 -26.4375 20.90625 -26.28125 C 21.320312 -26.125 21.632812 -26.003906 21.84375 -25.921875 C 22.050781 -25.847656 22.398438 -25.734375 22.890625 -25.578125 C 23.390625 -25.421875 23.769531 -25.316406 24.03125 -25.265625 C 25.632812 -24.796875 27.035156 -24.273438 28.234375 -23.703125 C 29.429688 -23.140625 30.691406 -22.363281 32.015625 -21.375 C 33.347656 -20.382812 34.375 -19.132812 35.09375 -17.625 C 35.820312 -16.113281 36.1875 -14.398438 36.1875 -12.484375 C 36.1875 -3.378906 29.867188 1.171875 17.234375 1.171875 C 14.378906 1.171875 11.660156 0.726562 9.078125 -0.15625 C 6.503906 -1.039062 4.648438 -1.925781 3.515625 -2.8125 L 1.796875 -4.21875 L 7.40625 -13.65625 C 7.820312 -13.289062 8.367188 -12.859375 9.046875 -12.359375 C 9.722656 -11.867188 10.941406 -11.191406 12.703125 -10.328125 C 14.472656 -9.472656 16.007812 -9.046875 17.3125 -9.046875 C 20.175781 -9.046875 21.609375 -10.007812 21.609375 -11.9375 C 21.609375 -12.820312 21.242188 -13.507812 20.515625 -14 C 19.785156 -14.488281 18.550781 -15.046875 16.8125 -15.671875 C 15.070312 -16.296875 13.707031 -16.867188 12.71875 -17.390625 C 10.21875 -18.691406 8.238281 -20.160156 6.78125 -21.796875 C 5.332031 -23.441406 4.609375 -25.613281 4.609375 -28.3125 C 4.609375 -32.363281 6.179688 -35.519531 9.328125 -37.78125 C 12.472656 -40.050781 16.722656 -41.1875 22.078125 -41.1875 Z M 22.078125 -41.1875 "/></g></g></g><g fill="#ffffff" fill-opacity="1"><g transform="translate(316.297038, 667.892554)"><g><path d="M 7.015625 -40.015625 L 7.015625 -54.90625 L 20.828125 -54.90625 L 20.828125 -40.015625 L 29.25 -40.015625 L 29.25 -29.484375 L 20.828125 -29.484375 L 20.828125 -16.765625 C 20.828125 -13.078125 21.867188 -11.234375 23.953125 -11.234375 C 24.460938 -11.234375 25.003906 -11.335938 25.578125 -11.546875 C 26.148438 -11.753906 26.59375 -11.960938 26.90625 -12.171875 L 27.375 -12.484375 L 30.8125 -1.328125 C 27.84375 0.335938 24.460938 1.171875 20.671875 1.171875 C 18.066406 1.171875 15.828125 0.71875 13.953125 -0.1875 C 12.085938 -1.101562 10.671875 -2.328125 9.703125 -3.859375 C 8.742188 -5.390625 8.054688 -7 7.640625 -8.6875 C 7.222656 -10.382812 7.015625 -12.195312 7.015625 -14.125 L 7.015625 -29.484375 L 1.25 -29.484375 L 1.25 -40.015625 Z M 7.015625 -40.015625 "/></g></g></g><g fill="#ffffff" fill-opacity="1"><g transform="translate(347.10706, 667.892554)"><g><path d="M 2.890625 9.828125 L 14.203125 4.296875 C 16.273438 7.722656 19.882812 9.4375 25.03125 9.4375 C 27.425781 9.4375 29.648438 8.671875 31.703125 7.140625 C 33.753906 5.609375 34.78125 3.253906 34.78125 0.078125 L 34.78125 -2.890625 C 32.34375 -0.179688 27.976562 1.171875 21.6875 1.171875 C 15.914062 1.171875 11.15625 -0.867188 7.40625 -4.953125 C 3.664062 -9.035156 1.796875 -14.039062 1.796875 -19.96875 C 1.796875 -25.894531 3.664062 -30.910156 7.40625 -35.015625 C 11.15625 -39.128906 15.914062 -41.1875 21.6875 -41.1875 C 26.832031 -41.1875 31.117188 -39.597656 34.546875 -36.421875 L 34.78125 -36.421875 L 34.78125 -40.015625 L 48.59375 -40.015625 L 48.59375 1.09375 C 48.59375 7.59375 46.429688 12.609375 42.109375 16.140625 C 37.796875 19.679688 32.101562 21.453125 25.03125 21.453125 C 13.59375 21.453125 6.210938 17.578125 2.890625 9.828125 Z M 19.140625 -26.75 C 17.347656 -24.988281 16.453125 -22.726562 16.453125 -19.96875 C 16.453125 -17.207031 17.3125 -14.957031 19.03125 -13.21875 C 20.75 -11.476562 23.007812 -10.609375 25.8125 -10.609375 C 28.519531 -10.609375 30.742188 -11.488281 32.484375 -13.25 C 34.222656 -15.019531 35.09375 -17.257812 35.09375 -19.96875 C 35.09375 -22.726562 34.195312 -24.988281 32.40625 -26.75 C 30.613281 -28.519531 28.414062 -29.40625 25.8125 -29.40625 C 23.164062 -29.40625 20.941406 -28.519531 19.140625 -26.75 Z M 19.140625 -26.75 "/></g></g></g><g fill="#ffffff" fill-opacity="1"><g transform="translate(400.381102, 667.892554)"><g><path d="M 4.6875 0 L 4.6875 -40.015625 L 18.484375 -40.015625 L 18.484375 -34.234375 L 18.640625 -34.234375 C 18.742188 -34.441406 18.910156 -34.703125 19.140625 -35.015625 C 19.378906 -35.328125 19.890625 -35.875 20.671875 -36.65625 C 21.453125 -37.4375 22.28125 -38.140625 23.15625 -38.765625 C 24.039062 -39.390625 25.1875 -39.945312 26.59375 -40.4375 C 28 -40.9375 29.429688 -41.1875 30.890625 -41.1875 C 32.398438 -41.1875 33.878906 -40.976562 35.328125 -40.5625 C 36.785156 -40.144531 37.851562 -39.726562 38.53125 -39.3125 L 39.625 -38.6875 L 33.859375 -26.984375 C 32.140625 -28.441406 29.742188 -29.171875 26.671875 -29.171875 C 25.015625 -29.171875 23.585938 -28.804688 22.390625 -28.078125 C 21.191406 -27.347656 20.34375 -26.460938 19.84375 -25.421875 C 19.351562 -24.390625 19.003906 -23.507812 18.796875 -22.78125 C 18.585938 -22.050781 18.484375 -21.476562 18.484375 -21.0625 L 18.484375 0 Z M 4.6875 0 "/></g></g></g><g fill="#ffffff" fill-opacity="1"><g transform="translate(439.22514, 667.892554)"><g><path d="M 45.15625 -18.09375 L 16.140625 -18.09375 C 16.140625 -15.289062 17.050781 -13.210938 18.875 -11.859375 C 20.695312 -10.503906 22.671875 -9.828125 24.796875 -9.828125 C 27.035156 -9.828125 28.804688 -10.125 30.109375 -10.71875 C 31.410156 -11.320312 32.890625 -12.507812 34.546875 -14.28125 L 44.53125 -9.28125 C 40.375 -2.3125 33.460938 1.171875 23.796875 1.171875 C 17.753906 1.171875 12.578125 -0.894531 8.265625 -5.03125 C 3.953125 -9.164062 1.796875 -14.144531 1.796875 -19.96875 C 1.796875 -25.789062 3.953125 -30.78125 8.265625 -34.9375 C 12.578125 -39.101562 17.753906 -41.1875 23.796875 -41.1875 C 30.140625 -41.1875 35.296875 -39.351562 39.265625 -35.6875 C 43.242188 -32.019531 45.234375 -26.78125 45.234375 -19.96875 C 45.234375 -19.03125 45.207031 -18.40625 45.15625 -18.09375 Z M 16.53125 -25.734375 L 31.75 -25.734375 C 31.4375 -27.816406 30.613281 -29.414062 29.28125 -30.53125 C 27.957031 -31.65625 26.257812 -32.21875 24.1875 -32.21875 C 21.894531 -32.21875 20.070312 -31.617188 18.71875 -30.421875 C 17.363281 -29.222656 16.632812 -27.660156 16.53125 -25.734375 Z M 16.53125 -25.734375 "/></g></g></g><g fill="#ffffff" fill-opacity="1"><g transform="translate(486.259164, 667.892554)"><g><path d="M 28.390625 -65.515625 C 31.878906 -65.515625 35.285156 -65.007812 38.609375 -64 C 41.941406 -62.988281 44.410156 -61.988281 46.015625 -61 L 48.359375 -59.4375 L 42.4375 -47.734375 C 41.96875 -48.046875 41.316406 -48.445312 40.484375 -48.9375 C 39.648438 -49.4375 38.085938 -50.101562 35.796875 -50.9375 C 33.515625 -51.769531 31.382812 -52.1875 29.40625 -52.1875 C 26.957031 -52.1875 25.070312 -51.664062 23.75 -50.625 C 22.425781 -49.582031 21.765625 -48.175781 21.765625 -46.40625 C 21.765625 -45.519531 22.078125 -44.703125 22.703125 -43.953125 C 23.328125 -43.203125 24.390625 -42.394531 25.890625 -41.53125 C 27.398438 -40.675781 28.726562 -39.988281 29.875 -39.46875 C 31.019531 -38.945312 32.785156 -38.164062 35.171875 -37.125 C 39.335938 -35.351562 42.890625 -32.945312 45.828125 -29.90625 C 48.765625 -26.863281 50.234375 -23.421875 50.234375 -19.578125 C 50.234375 -15.890625 49.566406 -12.664062 48.234375 -9.90625 C 46.910156 -7.144531 45.09375 -4.984375 42.78125 -3.421875 C 40.46875 -1.867188 37.90625 -0.71875 35.09375 0.03125 C 32.289062 0.789062 29.25 1.171875 25.96875 1.171875 C 23.164062 1.171875 20.410156 0.882812 17.703125 0.3125 C 15.003906 -0.257812 12.742188 -0.972656 10.921875 -1.828125 C 9.097656 -2.691406 7.457031 -3.535156 6 -4.359375 C 4.550781 -5.191406 3.488281 -5.894531 2.8125 -6.46875 L 1.796875 -7.328125 L 9.125 -19.65625 C 9.75 -19.132812 10.609375 -18.46875 11.703125 -17.65625 C 12.796875 -16.851562 14.734375 -15.773438 17.515625 -14.421875 C 20.296875 -13.078125 22.75 -12.40625 24.875 -12.40625 C 31.0625 -12.40625 34.15625 -14.507812 34.15625 -18.71875 C 34.15625 -19.601562 33.9375 -20.421875 33.5 -21.171875 C 33.0625 -21.929688 32.28125 -22.6875 31.15625 -23.4375 C 30.039062 -24.1875 29.050781 -24.78125 28.1875 -25.21875 C 27.332031 -25.664062 25.929688 -26.34375 23.984375 -27.25 C 22.035156 -28.164062 20.59375 -28.859375 19.65625 -29.328125 C 15.757812 -31.253906 12.742188 -33.660156 10.609375 -36.546875 C 8.472656 -39.429688 7.40625 -42.535156 7.40625 -45.859375 C 7.40625 -51.628906 9.535156 -56.347656 13.796875 -60.015625 C 18.066406 -63.679688 22.929688 -65.515625 28.390625 -65.515625 Z M 28.390625 -65.515625 "/></g></g></g><g fill="#ffffff" fill-opacity="1"><g transform="translate(538.675208, 667.892554)"><g><path d="M 20.359375 13.5 L 16.84375 8.1875 C 17 7.976562 17.207031 7.71875 17.46875 7.40625 C 17.726562 7.09375 18.273438 6.507812 19.109375 5.65625 C 19.941406 4.800781 20.75 4.046875 21.53125 3.390625 C 22.3125 2.742188 23.21875 2.160156 24.25 1.640625 C 25.289062 1.117188 26.253906 0.859375 27.140625 0.859375 L 27.140625 0.546875 C 19.546875 -0.910156 13.421875 -4.65625 8.765625 -10.6875 C 4.117188 -16.71875 1.796875 -23.894531 1.796875 -32.21875 C 1.796875 -41.570312 4.914062 -49.457031 11.15625 -55.875 C 17.394531 -62.300781 24.960938 -65.515625 33.859375 -65.515625 C 42.796875 -65.515625 50.359375 -62.300781 56.546875 -55.875 C 62.734375 -49.457031 65.828125 -41.570312 65.828125 -32.21875 C 65.828125 -24.570312 63.773438 -17.835938 59.671875 -12.015625 C 55.566406 -6.191406 50.160156 -2.265625 43.453125 -0.234375 L 43.453125 0.078125 C 43.753906 0.078125 45.128906 0.320312 47.578125 0.8125 C 50.023438 1.3125 51.976562 1.5625 53.4375 1.5625 C 55.40625 1.5625 57.195312 1.207031 58.8125 0.5 C 60.425781 -0.195312 61.546875 -0.882812 62.171875 -1.5625 L 63.109375 -2.65625 L 67.703125 7.25 C 67.597656 7.507812 67.425781 7.832031 67.1875 8.21875 C 66.957031 8.613281 66.425781 9.304688 65.59375 10.296875 C 64.757812 11.285156 63.835938 12.171875 62.828125 12.953125 C 61.816406 13.734375 60.460938 14.429688 58.765625 15.046875 C 57.078125 15.671875 55.273438 15.984375 53.359375 15.984375 C 50.179688 15.984375 46.300781 14.96875 41.71875 12.9375 C 37.144531 10.914062 33.195312 9.90625 29.875 9.90625 C 28.050781 9.90625 26.347656 10.203125 24.765625 10.796875 C 23.179688 11.398438 22.050781 12.015625 21.375 12.640625 Z M 17.625 -32.21875 C 17.625 -29.71875 17.910156 -27.390625 18.484375 -25.234375 C 19.054688 -23.078125 19.953125 -21.113281 21.171875 -19.34375 C 22.398438 -17.570312 24.09375 -16.179688 26.25 -15.171875 C 28.40625 -14.160156 30.941406 -13.65625 33.859375 -13.65625 C 39.316406 -13.65625 43.367188 -15.421875 46.015625 -18.953125 C 48.671875 -22.492188 50 -26.914062 50 -32.21875 C 50 -37.46875 48.644531 -41.875 45.9375 -45.4375 C 43.238281 -49 39.210938 -50.78125 33.859375 -50.78125 C 28.546875 -50.78125 24.507812 -48.984375 21.75 -45.390625 C 19 -41.804688 17.625 -37.414062 17.625 -32.21875 Z M 17.625 -32.21875 "/></g></g></g><g fill="#ffffff" fill-opacity="1"><g transform="translate(606.301273, 667.892554)"><g><path d="M 19.34375 -64.34375 L 19.34375 -12.875 L 41.5 -12.875 L 41.5 0 L 4.6875 0 L 4.6875 -64.34375 Z M 19.34375 -64.34375 "/></g></g></g></svg>